<?xml version="1.0" standalone="no"?>
<!DOCTYPE svg PUBLIC "-//W3C//DTD SVG 20010904//EN"
 "http://www.w3.org/TR/2001/REC-SVG-20010904/DTD/svg10.dtd">
<svg version="1.0" xmlns="http://www.w3.org/2000/svg"
 width="1000.000000pt" height="1000.000000pt" viewBox="0 0 1000.000000 1000.000000"
 preserveAspectRatio="xMidYMid meet">



<g transform="translate(0.000000,1000.000000) scale(0.100000,-0.100000)"
  fill="#3F5FA3" stroke="none">
<path d="M4855 8494 c-16 -8 -37 -21 -45 -29 -8 -7 -41 -20 -72 -29 -95 -27
-212 -146 -315 -320 -9 -15 -12 -214 -13 -795 0 -671 -3 -778 -15 -798 -28
-43 -57 -30 -141 63 -44 48 -100 108 -127 133 -26 25 -222 219 -435 430 -213
211 -404 394 -425 408 -83 53 -158 68 -337 68 l-165 0 -90 -37 c-82 -34 -97
-45 -165 -117 -109 -116 -142 -175 -156 -280 -17 -116 -17 -289 0 -384 11 -61
21 -85 47 -118 30 -36 694 -702 767 -769 15 -14 57 -57 94 -95 37 -39 98 -99
137 -135 45 -41 71 -73 71 -86 0 -50 21 -49 -819 -54 l-786 -5 -65 -34 c-36
-18 -82 -47 -103 -64 -51 -40 -153 -179 -173 -237 -9 -25 -30 -76 -46 -114
-28 -62 -30 -75 -25 -145 3 -48 14 -101 30 -142 14 -35 29 -77 33 -94 15 -66
58 -127 168 -236 93 -93 240 -153 365 -149 37 1 237 2 446 1 209 -1 500 -2
647 -2 317 0 308 3 260 -94 -20 -40 -42 -70 -59 -79 -40 -21 -859 -848 -918
-926 -66 -87 -75 -128 -75 -330 0 -177 7 -220 49 -290 37 -63 186 -208 262
-255 l64 -40 190 -3 c211 -4 237 0 314 53 28 19 55 35 60 35 12 0 64 49 354
332 133 130 248 243 256 250 7 7 109 111 226 231 118 119 220 217 227 217 8 0
23 -6 34 -14 18 -14 19 -37 24 -803 l5 -788 56 -85 c53 -80 144 -176 221 -232
31 -24 147 -60 233 -72 153 -23 295 10 428 101 43 29 82 53 87 53 5 0 30 35
55 78 26 42 55 92 67 110 40 65 49 193 53 847 3 396 1 630 -6 668 -18 104 23
143 95 90 21 -15 253 -242 516 -503 263 -261 500 -490 526 -509 53 -37 119
-61 169 -61 17 0 53 -7 79 -16 29 -10 62 -14 84 -11 251 39 252 39 307 85 16
14 48 33 71 42 45 20 61 38 134 150 39 60 52 91 65 155 8 44 20 91 26 105 26
59 27 77 7 121 -11 24 -24 78 -29 119 -11 80 -22 108 -81 192 -40 57 -837 865
-902 913 -38 29 -76 97 -76 136 0 33 44 52 103 45 28 -4 147 -6 262 -5 116 1
406 2 645 3 357 2 446 5 495 18 80 21 114 35 151 63 16 13 46 30 66 38 21 9
48 33 66 59 16 23 39 51 50 62 12 10 24 32 28 50 3 17 24 66 47 109 39 77 40
80 32 145 -5 37 -7 108 -6 158 2 73 -1 93 -14 104 -9 7 -31 45 -49 84 -42 90
-180 232 -271 280 l-60 31 -786 5 c-844 5 -819 4 -819 55 0 13 10 32 23 42 12
10 33 34 47 53 13 19 31 39 39 44 18 11 192 176 231 219 14 16 169 174 346
350 176 177 326 331 332 343 6 12 26 39 44 61 33 39 41 65 63 204 3 19 16 51
30 69 32 44 31 61 -5 125 -18 32 -33 77 -39 116 -5 36 -16 80 -25 99 -24 53
-90 141 -122 164 -16 10 -45 34 -64 52 -24 21 -62 41 -117 58 -74 23 -101 26
-250 27 l-168 1 -72 -35 c-40 -19 -94 -52 -120 -73 -69 -55 -890 -873 -914
-911 -11 -18 -48 -47 -86 -68 l-67 -37 -19 24 c-17 20 -18 33 -12 98 4 41 6
89 6 105 0 17 -2 287 -5 600 -2 366 -8 589 -15 624 -6 29 -11 74 -11 100 0 61
-63 164 -164 269 -51 53 -151 122 -177 122 -8 0 -41 14 -74 30 -56 28 -67 30
-175 30 -85 0 -123 -4 -145 -16z m275 -2693 c174 -24 233 -43 325 -107 86 -59
227 -200 268 -268 17 -28 41 -64 53 -81 26 -35 54 -124 54 -171 0 -17 14 -58
31 -90 27 -52 30 -66 26 -119 -2 -33 -17 -89 -32 -124 -14 -35 -31 -92 -36
-125 -11 -63 -24 -96 -87 -206 -59 -104 -205 -242 -307 -291 -33 -16 -74 -38
-91 -49 -19 -12 -63 -24 -110 -30 -43 -5 -111 -17 -151 -27 -66 -15 -75 -15
-130 0 -32 9 -92 19 -133 23 -86 7 -122 18 -167 51 -18 13 -53 32 -79 43 -65
28 -251 215 -295 295 -97 180 -99 189 -99 445 0 208 16 302 63 363 14 18 32
50 40 69 26 62 187 225 293 297 74 51 114 66 269 99 117 25 124 25 295 3z"/>
</g>
</svg>