<?xml version="1.0" encoding="UTF-8"?>
<svg width="1200" height="630" viewBox="0 0 1200 630" fill="none" xmlns="http://www.w3.org/2000/svg">
  <defs>
    <linearGradient id="bg" x1="80" y1="50" x2="1120" y2="610" gradientUnits="userSpaceOnUse">
      <stop stop-color="#F7F8FB"/>
      <stop offset="1" stop-color="#EEF1F7"/>
    </linearGradient>
    <linearGradient id="glass" x1="120" y1="120" x2="980" y2="520" gradientUnits="userSpaceOnUse">
      <stop stop-color="#FFFFFF" stop-opacity="0.88"/>
      <stop offset="1" stop-color="#FFFFFF" stop-opacity="0.68"/>
    </linearGradient>
    <linearGradient id="route" x1="240" y1="80" x2="960" y2="560" gradientUnits="userSpaceOnUse">
      <stop stop-color="#22B8B2" stop-opacity="0.35"/>
      <stop offset="1" stop-color="#3F5FA3" stop-opacity="0.22"/>
    </linearGradient>
  </defs>
  <rect width="1200" height="630" fill="url(#bg)"/>
  <g opacity="0.35">
    <path d="M160 170C240 140 320 170 420 220C520 270 640 340 760 320C880 300 1000 210 1040 150" stroke="url(#route)" stroke-width="12" stroke-linecap="round" stroke-dasharray="12 28"/>
    <circle cx="420" cy="220" r="12" fill="#22B8B2"/>
    <circle cx="760" cy="320" r="12" fill="#FF5A6B"/>
    <circle cx="960" cy="260" r="12" fill="#40D57C"/>
  </g>
  <rect x="140" y="90" width="920" height="450" rx="40" fill="url(#glass)" stroke="#DDE3F0" stroke-width="2"/>
  <g transform="translate(200 160)">
    <rect x="0" y="0" width="140" height="140" rx="32" fill="#3F5FA3"/>
    <rect x="12" y="12" width="116" height="116" rx="28" fill="#5C7BCB" opacity="0.5"/>
    <path d="M40 14c-5.4 0-9.7 4.3-9.7 9.6c0 2.7 1.1 5.2 3.1 7.1L74 74.8v40.4c0 5.1 4.1 9.3 9.2 9.3h2.4c5.1 0 9.2-4.2 9.2-9.3V74.8l40.7-44.1c2-1.9 3.1-4.4 3.1-7.1c0-5.3-4.3-9.6-9.7-9.6c-2.5 0-5 1.1-6.7 2.9L83.9 62.4L46.7 16.9C45 15.1 42.6 14 40 14Z" fill="#FFFFFF" opacity="0.96"/>
    <circle cx="116" cy="30" r="11" fill="#22B8B2"/>
    <circle cx="116" cy="30" r="5" fill="#FFFFFF" opacity="0.82"/>
  </g>
  <text x="360" y="235" font-family="'Inter', 'SF Pro Display', 'Segoe UI', sans-serif" font-size="86" font-weight="700" fill="#2A3B63">Yugi</text>
  <text x="360" y="290" font-family="'Inter', 'SF Pro Display', 'Segoe UI', sans-serif" font-size="28" font-weight="500" fill="#55607A">Soft Navigator for confident travel planning</text>
  <g transform="translate(360 330)" font-family="'Inter', 'SF Pro Display', 'Segoe UI', sans-serif" font-size="22" font-weight="600" fill="#2A3245">
    <text y="0">• Glassmorphic overlays for itineraries</text>
    <text y="42">• Tactile buttons and calm guidance</text>
    <text y="84">• Map-first clarity with gentle route cues</text>
  </g>
</svg>
