<?xml version="1.0" encoding="UTF-8"?>
<svg width="160" height="160" viewBox="0 0 160 160" fill="none" xmlns="http://www.w3.org/2000/svg">
  <defs>
    <linearGradient id="bg" x1="24" y1="18" x2="132" y2="142" gradientUnits="userSpaceOnUse">
      <stop stop-color="#5C7BCB"/>
      <stop offset="1" stop-color="#2A3B63"/>
    </linearGradient>
    <linearGradient id="glow" x1="46" y1="32" x2="110" y2="120" gradientUnits="userSpaceOnUse">
      <stop stop-color="#8FA8E6" stop-opacity="0.9"/>
      <stop offset="1" stop-color="#3F5FA3" stop-opacity="0.2"/>
    </linearGradient>
  </defs>
  <rect x="10" y="10" width="140" height="140" rx="32" fill="url(#bg)"/>
  <rect x="18" y="18" width="124" height="124" rx="28" fill="url(#glow)" opacity="0.55"/>
  <path d="M51.5 36c-4.6 0-8.3 3.8-8.3 8.5c0 2.3 0.9 4.5 2.6 6.1L75 80.1v33.4c0 4.2 3.4 7.5 7.5 7.5h1.8c4.2 0 7.5-3.4 7.5-7.5V80.1l29.2-29.5c1.7-1.6 2.6-3.8 2.6-6.1c0-4.7-3.7-8.5-8.3-8.5c-2.2 0-4.4 0.9-5.9 2.4L84 71.2L57.4 38.4C55.8 36.9 53.7 36 51.5 36Z" fill="#FFFFFF" opacity="0.96"/>
  <circle cx="118" cy="44" r="12" fill="#22B8B2"/>
  <circle cx="118" cy="44" r="6" fill="#FFFFFF" opacity="0.8"/>
</svg>
