<svg width="100%" height="100%" viewBox="0 0 1920 120" preserveAspectRatio="none" xmlns="http://www.w3.org/2000/svg">
  <path 
    d="M0,50 
       C4,37.5 12,37.5 16,50 C20,62.5 28,62.5 32,50
       C36,37.5 44,37.5 48,50 C52,62.5 60,62.5 64,50
       C68,37.5 76,37.5 80,50 C84,62.5 92,62.5 96,50
       C100,37.5 108,37.5 112,50 C116,62.5 124,62.5 128,50
       C132,37.5 140,37.5 144,50 C148,62.5 156,62.5 160,50
       C164,37.5 172,37.5 176,50 C180,62.5 188,62.5 192,50
       C196,37.5 204,37.5 208,50 C212,62.5 220,62.5 224,50
       C228,37.5 236,37.5 240,50 C244,62.5 252,62.5 256,50
       C260,37.5 268,37.5 272,50 C276,62.5 284,62.5 288,50
       C292,37.5 300,37.5 304,50 C308,62.5 316,62.5 320,50
       C324,37.5 332,37.5 336,50 C340,62.5 348,62.5 352,50
       C356,37.5 364,37.5 368,50 C372,62.5 380,62.5 384,50
       C388,37.5 396,37.5 400,50 C404,62.5 412,62.5 416,50
       C420,37.5 428,37.5 432,50 C436,62.5 444,62.5 448,50
       C452,37.5 460,37.5 464,50 C468,62.5 476,62.5 480,50
       C484,37.5 492,37.5 496,50 C500,62.5 508,62.5 512,50
       C516,37.5 524,37.5 528,50 C532,62.5 540,62.5 544,50
       C548,37.5 556,37.5 560,50 C564,62.5 572,62.5 576,50
       C580,37.5 588,37.5 592,50 C596,62.5 604,62.5 608,50
       C612,37.5 620,37.5 624,50 C628,62.5 636,62.5 640,50
       C644,37.5 652,37.5 656,50 C660,62.5 668,62.5 672,50
       C676,37.5 684,37.5 688,50 C692,62.5 700,62.5 704,50
       C708,37.5 716,37.5 720,50 C724,62.5 732,62.5 736,50
       C740,37.5 748,37.5 752,50 C756,62.5 764,62.5 768,50
       C772,37.5 780,37.5 784,50 C788,62.5 796,62.5 800,50
       C804,37.5 812,37.5 816,50 C820,62.5 828,62.5 832,50
       C836,37.5 844,37.5 848,50 C852,62.5 860,62.5 864,50
       C868,37.5 876,37.5 880,50 C884,62.5 892,62.5 896,50
       C900,37.5 908,37.5 912,50 C916,62.5 924,62.5 928,50
       C932,37.5 940,37.5 944,50 C948,62.5 956,62.5 960,50
       C964,37.5 972,37.5 976,50 C980,62.5 988,62.5 992,50
       C996,37.5 1004,37.5 1008,50 C1012,62.5 1020,62.5 1024,50
       C1028,37.5 1036,37.5 1040,50 C1044,62.5 1052,62.5 1056,50
       C1060,37.5 1068,37.5 1072,50 C1076,62.5 1084,62.5 1088,50
       C1092,37.5 1100,37.5 1104,50 C1108,62.5 1116,62.5 1120,50
       C1124,37.5 1132,37.5 1136,50 C1140,62.5 1148,62.5 1152,50
       C1156,37.5 1164,37.5 1168,50 C1172,62.5 1180,62.5 1184,50
       C1188,37.5 1196,37.5 1200,50 C1204,62.5 1212,62.5 1216,50
       C1220,37.5 1228,37.5 1232,50 C1236,62.5 1244,62.5 1248,50
       C1252,37.5 1260,37.5 1264,50 C1268,62.5 1276,62.5 1280,50
       C1284,37.5 1292,37.5 1296,50 C1300,62.5 1308,62.5 1312,50
       C1316,37.5 1324,37.5 1328,50 C1332,62.5 1340,62.5 1344,50
       C1348,37.5 1356,37.5 1360,50 C1364,62.5 1372,62.5 1376,50
       C1380,37.5 1388,37.5 1392,50 C1396,62.5 1404,62.5 1408,50
       C1412,37.5 1420,37.5 1424,50 C1428,62.5 1436,62.5 1440,50
       C1444,37.5 1452,37.5 1456,50 C1460,62.5 1468,62.5 1472,50
       C1476,37.5 1484,37.5 1488,50 C1492,62.5 1500,62.5 1504,50
       C1508,37.5 1516,37.5 1520,50 C1524,62.5 1532,62.5 1536,50
       C1540,37.5 1548,37.5 1552,50 C1556,62.5 1564,62.5 1568,50
       C1572,37.5 1580,37.5 1584,50 C1588,62.5 1596,62.5 1600,50
       C1604,37.5 1612,37.5 1616,50 C1620,62.5 1628,62.5 1632,50
       C1636,37.5 1644,37.5 1648,50 C1652,62.5 1660,62.5 1664,50
       C1668,37.5 1676,37.5 1680,50 C1684,62.5 1692,62.5 1696,50
       C1700,37.5 1708,37.5 1712,50 C1716,62.5 1724,62.5 1728,50
       C1732,37.5 1740,37.5 1744,50 C1748,62.5 1756,62.5 1760,50
       C1764,37.5 1772,37.5 1776,50 C1780,62.5 1788,62.5 1792,50
       C1796,37.5 1804,37.5 1808,50 C1812,62.5 1820,62.5 1824,50
       C1828,37.5 1836,37.5 1840,50 C1844,62.5 1852,62.5 1856,50
       C1860,37.5 1868,37.5 1872,50 C1876,62.5 1884,62.5 1888,50
       C1892,37.5 1900,37.5 1904,50 C1908,62.5 1916,62.5 1920,50
       V120 H0 Z" 
    fill="#2A3B63"
  />
</svg>