<svg xmlns="http://www.w3.org/2000/svg" xmlns:xlink="http://www.w3.org/1999/xlink" width="500" zoomAndPan="magnify" viewBox="0 0 375 374.999991" height="500" preserveAspectRatio="xMidYMid meet" version="1.0"><defs><g/><clipPath id="8b4d70dfc3"><path d="M 0 61.640625 L 375 61.640625 L 375 313 L 0 313 Z M 0 61.640625 " clip-rule="nonzero"/></clipPath></defs><path fill="#8338ec" d="M 71.371094 160.816406 L 71.246094 160.957031 L 70.886719 161.359375 C 70.757812 161.5 70.683594 161.582031 70.429688 161.851562 L 69.816406 162.476562 C 70.199219 162.601562 70.582031 162.730469 70.964844 162.855469 L 71.609375 163.09375 C 71.730469 163.136719 71.855469 163.171875 71.976562 163.199219 C 71.996094 163.199219 71.988281 163.199219 71.996094 163.191406 C 71.996094 163.191406 72.003906 163.191406 72.011719 163.191406 L 72.03125 163.21875 L 72.066406 163.277344 C 72.117188 163.355469 72.164062 163.429688 72.214844 163.507812 C 72.296875 163.65625 72.367188 163.804688 72.445312 163.949219 L 72.5 164.0625 L 72.570312 164.195312 L 72.804688 164.617188 C 72.929688 164.84375 73.070312 165.003906 73.183594 165.167969 C 73.238281 165.074219 73.289062 164.992188 73.335938 164.914062 C 73.429688 164.785156 73.519531 164.660156 73.617188 164.535156 L 73.765625 164.335938 L 73.84375 164.238281 L 73.878906 164.191406 L 73.898438 164.160156 C 74.019531 164.019531 74.132812 163.875 74.238281 163.726562 L 74.425781 163.4375 L 74.519531 163.289062 L 74.519531 163.269531 C 74.519531 163.269531 74.546875 163.261719 74.546875 163.261719 L 74.679688 163.226562 L 74.976562 163.15625 L 75.566406 163.007812 C 75.953125 162.925781 76.34375 162.832031 76.730469 162.75 L 76.386719 162.3125 L 75.78125 161.535156 L 75.355469 160.964844 C 75.355469 160.964844 75.339844 160.945312 75.332031 160.9375 C 75.339844 160.9375 75.390625 160.707031 75.417969 160.550781 C 75.445312 160.382812 75.460938 160.214844 75.4375 160.042969 C 75.429688 159.96875 75.425781 159.890625 75.425781 159.8125 C 75.425781 159.714844 75.4375 159.582031 75.453125 159.460938 C 75.480469 159.222656 75.515625 158.984375 75.558594 158.71875 C 75.359375 158.773438 75.15625 158.835938 74.945312 158.90625 C 74.839844 158.941406 74.730469 158.976562 74.625 159.019531 L 74.546875 159.046875 L 74.496094 159.070312 L 74.40625 159.109375 C 74.132812 159.242188 73.84375 159.363281 73.5625 159.476562 L 73.449219 159.523438 L 73.402344 159.503906 L 73.324219 159.476562 L 73.121094 159.390625 C 72.988281 159.335938 72.847656 159.285156 72.707031 159.238281 C 72.472656 159.160156 72.234375 159.117188 71.988281 159.074219 C 71.96875 159.035156 71.945312 158.992188 71.917969 158.957031 C 71.828125 158.941406 71.742188 158.933594 71.671875 158.949219 C 71.566406 158.964844 71.496094 159.003906 71.488281 159.089844 C 71.453125 159.449219 71.441406 159.8125 71.433594 160.171875 C 71.433594 160.285156 71.433594 160.390625 71.433594 160.5 L 71.433594 160.753906 C 71.433594 160.753906 71.433594 160.777344 71.433594 160.777344 L 71.386719 160.824219 Z M 71.371094 160.816406 " fill-opacity="1" fill-rule="nonzero"/><path fill="#8338ec" d="M 62.84375 158.167969 C 62.871094 158.09375 62.898438 158.023438 62.933594 157.953125 C 62.976562 157.859375 63.046875 157.746094 63.109375 157.648438 C 63.234375 157.445312 63.375 157.242188 63.53125 157.023438 C 63.332031 156.988281 63.121094 156.960938 62.898438 156.925781 C 62.785156 156.910156 62.671875 156.898438 62.5625 156.882812 L 62.476562 156.882812 C 62.476562 156.882812 62.421875 156.871094 62.421875 156.871094 L 62.316406 156.871094 C 62.007812 156.871094 61.703125 156.847656 61.394531 156.835938 L 61.269531 156.835938 C 61.269531 156.835938 61.234375 156.792969 61.234375 156.792969 L 61.175781 156.730469 L 61.03125 156.566406 C 60.929688 156.460938 60.832031 156.347656 60.726562 156.25 C 60.550781 156.082031 60.355469 155.933594 60.152344 155.792969 C 60.152344 155.753906 60.152344 155.703125 60.144531 155.652344 C 60.066406 155.605469 59.988281 155.5625 59.925781 155.535156 C 59.828125 155.5 59.742188 155.507812 59.695312 155.582031 C 59.511719 155.894531 59.335938 156.214844 59.167969 156.53125 C 59.117188 156.628906 59.070312 156.730469 59.027344 156.828125 L 58.921875 157.058594 L 58.921875 157.074219 C 58.921875 157.074219 58.851562 157.09375 58.851562 157.09375 L 58.675781 157.164062 L 58.175781 157.367188 C 58 157.4375 57.894531 157.488281 57.550781 157.613281 L 56.730469 157.917969 C 57.019531 158.195312 57.304688 158.476562 57.601562 158.757812 L 58.085938 159.25 C 58.175781 159.34375 58.277344 159.425781 58.375 159.503906 C 58.394531 159.519531 58.386719 159.503906 58.394531 159.503906 C 58.394531 159.503906 58.402344 159.503906 58.410156 159.503906 L 58.410156 159.539062 C 58.410156 159.539062 58.421875 159.609375 58.421875 159.609375 C 58.4375 159.699219 58.445312 159.792969 58.449219 159.875 C 58.464844 160.042969 58.464844 160.214844 58.464844 160.375 L 58.464844 160.5 C 58.464844 160.5 58.464844 160.648438 58.464844 160.648438 L 58.492188 161.132812 C 58.515625 161.394531 58.5625 161.597656 58.597656 161.792969 C 58.691406 161.730469 58.765625 161.683594 58.84375 161.632812 C 58.984375 161.554688 59.117188 161.484375 59.257812 161.40625 L 59.476562 161.296875 L 59.589844 161.238281 L 59.644531 161.210938 L 59.671875 161.195312 C 59.84375 161.121094 60.003906 161.042969 60.164062 160.953125 L 60.460938 160.777344 L 60.609375 160.683594 L 60.621094 160.671875 L 60.644531 160.671875 C 60.644531 160.671875 60.777344 160.699219 60.777344 160.699219 L 61.070312 160.761719 L 61.660156 160.886719 C 62.046875 160.980469 62.433594 161.070312 62.828125 161.15625 L 62.707031 160.613281 L 62.496094 159.644531 L 62.355469 158.949219 C 62.355469 158.949219 62.355469 158.929688 62.355469 158.914062 C 62.363281 158.914062 62.503906 158.730469 62.597656 158.597656 C 62.695312 158.457031 62.777344 158.308594 62.835938 158.148438 Z M 62.84375 158.167969 " fill-opacity="1" fill-rule="nonzero"/><path fill="#8338ec" d="M 47.695312 150.414062 C 47.667969 150.496094 47.640625 150.589844 47.605469 150.671875 C 47.539062 150.828125 47.46875 150.980469 47.398438 151.128906 L 47.351562 151.242188 L 47.289062 151.375 L 47.105469 151.824219 C 47.007812 152.0625 46.972656 152.273438 46.914062 152.464844 C 47.019531 152.449219 47.121094 152.4375 47.210938 152.429688 C 47.363281 152.421875 47.527344 152.414062 47.679688 152.410156 L 47.925781 152.410156 C 47.925781 152.410156 48.054688 152.402344 48.054688 152.402344 L 48.117188 152.402344 C 48.117188 152.402344 48.152344 152.402344 48.152344 152.402344 C 48.335938 152.402344 48.515625 152.402344 48.699219 152.386719 L 49.042969 152.359375 L 49.210938 152.339844 L 49.234375 152.339844 C 49.234375 152.339844 49.253906 152.339844 49.253906 152.339844 L 49.359375 152.421875 L 49.597656 152.605469 L 50.078125 152.976562 C 50.386719 153.222656 50.695312 153.476562 51.003906 153.722656 L 51.128906 153.179688 L 51.363281 152.21875 L 51.539062 151.53125 C 51.539062 151.53125 51.539062 151.507812 51.550781 151.503906 C 51.550781 151.503906 51.769531 151.402344 51.902344 151.328125 C 52.050781 151.242188 52.191406 151.152344 52.3125 151.023438 C 52.367188 150.96875 52.421875 150.917969 52.488281 150.871094 C 52.5625 150.8125 52.675781 150.734375 52.773438 150.671875 C 52.976562 150.546875 53.1875 150.421875 53.421875 150.292969 C 53.253906 150.179688 53.078125 150.054688 52.894531 149.933594 C 52.800781 149.871094 52.703125 149.808594 52.605469 149.753906 L 52.527344 149.710938 L 52.480469 149.683594 L 52.386719 149.632812 C 52.113281 149.5 51.847656 149.351562 51.574219 149.203125 L 51.460938 149.148438 L 51.445312 149.09375 L 51.425781 149.015625 L 51.371094 148.804688 C 51.328125 148.664062 51.285156 148.523438 51.234375 148.390625 C 51.152344 148.164062 51.039062 147.945312 50.917969 147.730469 C 50.941406 147.6875 50.953125 147.644531 50.976562 147.597656 C 50.925781 147.519531 50.878906 147.449219 50.828125 147.398438 C 50.75 147.320312 50.675781 147.292969 50.605469 147.34375 C 50.300781 147.546875 50.007812 147.757812 49.71875 147.976562 C 49.628906 148.039062 49.542969 148.109375 49.457031 148.179688 L 49.261719 148.339844 L 49.246094 148.355469 L 49.175781 148.355469 C 49.175781 148.355469 48.988281 148.332031 48.988281 148.332031 L 48.445312 148.304688 C 48.257812 148.292969 48.136719 148.285156 47.78125 148.257812 L 46.914062 148.171875 C 47.054688 148.550781 47.195312 148.929688 47.328125 149.308594 L 47.546875 149.964844 C 47.589844 150.082031 47.640625 150.203125 47.695312 150.316406 C 47.710938 150.335938 47.710938 150.316406 47.714844 150.328125 C 47.714844 150.328125 47.714844 150.328125 47.722656 150.34375 L 47.722656 150.378906 C 47.722656 150.378906 47.695312 150.441406 47.695312 150.441406 Z M 47.695312 150.414062 " fill-opacity="1" fill-rule="nonzero"/><path fill="#8338ec" d="M 40.710938 139.058594 C 40.859375 139.117188 41 139.179688 41.148438 139.242188 L 41.371094 139.339844 L 41.484375 139.390625 L 41.542969 139.417969 L 41.570312 139.433594 C 41.730469 139.515625 41.898438 139.59375 42.066406 139.664062 L 42.390625 139.785156 L 42.550781 139.839844 L 42.574219 139.839844 C 42.574219 139.839844 42.585938 139.859375 42.585938 139.859375 L 42.652344 139.980469 L 42.785156 140.253906 L 43.058594 140.796875 C 43.226562 141.152344 43.402344 141.511719 43.570312 141.871094 L 43.914062 141.441406 L 44.539062 140.675781 L 44.996094 140.128906 C 44.996094 140.128906 45.011719 140.113281 45.019531 140.105469 C 45.019531 140.113281 45.257812 140.105469 45.410156 140.105469 C 45.582031 140.101562 45.75 140.070312 45.910156 140.015625 C 45.988281 139.988281 46.058594 139.964844 46.136719 139.953125 C 46.234375 139.929688 46.367188 139.917969 46.480469 139.902344 C 46.71875 139.875 46.964844 139.859375 47.230469 139.839844 C 47.132812 139.664062 47.027344 139.476562 46.910156 139.285156 C 46.851562 139.1875 46.789062 139.089844 46.726562 138.996094 L 46.675781 138.925781 L 46.640625 138.878906 L 46.578125 138.792969 C 46.386719 138.554688 46.214844 138.300781 46.03125 138.054688 L 45.953125 137.957031 L 45.953125 137.902344 C 45.953125 137.902344 45.972656 137.824219 45.972656 137.824219 L 46.007812 137.605469 C 46.03125 137.457031 46.050781 137.316406 46.066406 137.171875 C 46.085938 136.929688 46.078125 136.683594 46.066406 136.441406 C 46.101562 136.410156 46.136719 136.382812 46.171875 136.347656 C 46.164062 136.257812 46.148438 136.171875 46.128906 136.101562 C 46.09375 136.003906 46.039062 135.941406 45.953125 135.953125 C 45.59375 136.003906 45.238281 136.066406 44.886719 136.136719 C 44.78125 136.160156 44.675781 136.1875 44.5625 136.207031 L 44.316406 136.269531 L 44.296875 136.269531 C 44.296875 136.269531 44.238281 136.234375 44.238281 136.234375 L 44.078125 136.144531 L 43.605469 135.882812 C 43.4375 135.792969 43.339844 135.738281 43.023438 135.546875 L 42.277344 135.089844 C 42.238281 135.492188 42.203125 135.890625 42.160156 136.292969 L 42.074219 136.980469 C 42.0625 137.105469 42.054688 137.234375 42.054688 137.359375 C 42.054688 137.382812 42.0625 137.367188 42.066406 137.382812 C 42.066406 137.382812 42.066406 137.386719 42.066406 137.394531 L 42.046875 137.421875 L 41.996094 137.472656 C 41.933594 137.535156 41.871094 137.605469 41.808594 137.660156 C 41.679688 137.773438 41.554688 137.878906 41.429688 137.984375 L 41.332031 138.0625 L 41.21875 138.160156 L 40.859375 138.484375 C 40.667969 138.660156 40.542969 138.828125 40.410156 138.976562 C 40.515625 139.003906 40.605469 139.039062 40.691406 139.074219 Z M 40.710938 139.058594 " fill-opacity="1" fill-rule="nonzero"/><path fill="#8338ec" d="M 42.636719 123.289062 L 42.601562 123.300781 L 42.539062 123.332031 C 42.453125 123.367188 42.371094 123.394531 42.277344 123.421875 C 42.117188 123.472656 41.957031 123.507812 41.792969 123.546875 L 41.675781 123.578125 L 41.535156 123.613281 L 41.070312 123.746094 C 40.824219 123.820312 40.636719 123.921875 40.453125 123.992188 C 40.53125 124.0625 40.601562 124.132812 40.664062 124.203125 C 40.769531 124.320312 40.875 124.433594 40.972656 124.558594 L 41.125 124.742188 L 41.203125 124.839844 L 41.246094 124.890625 L 41.265625 124.917969 C 41.378906 125.066406 41.492188 125.207031 41.617188 125.339844 L 41.855469 125.585938 L 41.976562 125.703125 L 41.996094 125.71875 L 41.996094 125.738281 C 41.996094 125.738281 42.003906 125.875 42.003906 125.875 L 42.003906 126.175781 C 42.003906 126.175781 42.019531 126.78125 42.019531 126.78125 C 42.019531 127.179688 42.019531 127.574219 42.019531 127.972656 L 42.519531 127.734375 L 43.417969 127.320312 L 44.0625 127.027344 C 44.0625 127.027344 44.085938 127.019531 44.089844 127.011719 C 44.089844 127.019531 44.300781 127.117188 44.449219 127.179688 C 44.605469 127.242188 44.765625 127.300781 44.941406 127.3125 C 45.019531 127.320312 45.097656 127.335938 45.171875 127.355469 C 45.273438 127.382812 45.398438 127.417969 45.511719 127.460938 C 45.734375 127.539062 45.96875 127.628906 46.214844 127.726562 C 46.199219 127.523438 46.183594 127.3125 46.164062 127.089844 C 46.148438 126.976562 46.144531 126.863281 46.128906 126.75 L 46.113281 126.667969 L 46.113281 126.609375 C 46.113281 126.609375 46.085938 126.511719 46.085938 126.511719 C 46.015625 126.210938 45.96875 125.910156 45.917969 125.605469 L 45.898438 125.488281 L 45.925781 125.4375 L 45.972656 125.375 L 46.101562 125.199219 C 46.183594 125.078125 46.269531 124.960938 46.339844 124.832031 C 46.464844 124.621094 46.5625 124.398438 46.65625 124.171875 C 46.699219 124.167969 46.746094 124.152344 46.789062 124.132812 C 46.824219 124.046875 46.84375 123.960938 46.851562 123.890625 C 46.867188 123.785156 46.839844 123.703125 46.753906 123.679688 C 46.410156 123.570312 46.058594 123.476562 45.707031 123.378906 C 45.601562 123.351562 45.496094 123.332031 45.382812 123.308594 L 45.136719 123.261719 L 45.117188 123.261719 C 45.117188 123.261719 45.082031 123.195312 45.082031 123.195312 L 44.976562 123.042969 L 44.667969 122.601562 C 44.554688 122.445312 44.492188 122.347656 44.289062 122.042969 L 43.816406 121.3125 C 43.605469 121.660156 43.394531 122.003906 43.191406 122.347656 L 42.820312 122.929688 C 42.75 123.035156 42.691406 123.148438 42.636719 123.265625 C 42.628906 123.289062 42.636719 123.28125 42.636719 123.289062 C 42.636719 123.289062 42.636719 123.296875 42.636719 123.300781 Z M 42.636719 123.289062 " fill-opacity="1" fill-rule="nonzero"/><path fill="#8338ec" d="M 47.554688 112.875 L 47.429688 113.152344 L 47.175781 113.699219 C 47 114.058594 46.832031 114.414062 46.65625 114.773438 L 47.210938 114.773438 C 47.210938 114.773438 48.199219 114.789062 48.199219 114.789062 L 48.910156 114.800781 C 48.910156 114.800781 48.933594 114.800781 48.945312 114.800781 C 48.945312 114.808594 49.09375 114.992188 49.199219 115.109375 C 49.3125 115.238281 49.4375 115.355469 49.578125 115.449219 C 49.648438 115.488281 49.710938 115.53125 49.769531 115.582031 C 49.84375 115.644531 49.945312 115.734375 50.019531 115.820312 C 50.1875 115.988281 50.359375 116.171875 50.539062 116.367188 C 50.617188 116.179688 50.695312 115.980469 50.773438 115.769531 C 50.816406 115.664062 50.851562 115.558594 50.886719 115.449219 L 50.914062 115.363281 L 50.925781 115.308594 L 50.953125 115.210938 C 51.023438 114.90625 51.109375 114.617188 51.195312 114.324219 L 51.230469 114.203125 L 51.277344 114.175781 L 51.347656 114.132812 L 51.539062 114.027344 C 51.664062 113.957031 51.792969 113.882812 51.917969 113.804688 C 52.121094 113.671875 52.304688 113.507812 52.492188 113.347656 C 52.535156 113.363281 52.585938 113.367188 52.632812 113.367188 C 52.703125 113.304688 52.761719 113.242188 52.796875 113.179688 C 52.851562 113.085938 52.867188 113.003906 52.796875 112.945312 C 52.535156 112.695312 52.261719 112.460938 51.988281 112.222656 C 51.902344 112.152344 51.820312 112.082031 51.726562 112.019531 L 51.523438 111.863281 L 51.511719 111.851562 L 51.511719 111.78125 C 51.511719 111.78125 51.476562 111.597656 51.476562 111.597656 L 51.382812 111.0625 C 51.347656 110.875 51.335938 110.761719 51.285156 110.398438 L 51.171875 109.53125 C 50.835938 109.75 50.5 109.976562 50.160156 110.191406 L 49.570312 110.550781 C 49.464844 110.621094 49.359375 110.691406 49.261719 110.777344 C 49.246094 110.789062 49.261719 110.789062 49.253906 110.796875 C 49.253906 110.796875 49.253906 110.804688 49.246094 110.8125 L 49.210938 110.8125 C 49.210938 110.8125 49.140625 110.804688 49.140625 110.804688 C 49.050781 110.796875 48.960938 110.789062 48.875 110.777344 C 48.714844 110.746094 48.546875 110.710938 48.382812 110.675781 L 48.265625 110.648438 L 48.117188 110.621094 L 47.640625 110.542969 C 47.386719 110.503906 47.175781 110.507812 46.972656 110.503906 C 47.015625 110.601562 47.042969 110.691406 47.070312 110.78125 C 47.113281 110.9375 47.15625 111.085938 47.195312 111.238281 L 47.289062 111.589844 L 47.300781 111.648438 L 47.300781 111.683594 C 47.34375 111.863281 47.386719 112.039062 47.441406 112.214844 L 47.546875 112.539062 L 47.605469 112.699219 L 47.617188 112.722656 L 47.617188 112.742188 C 47.617188 112.742188 47.554688 112.871094 47.554688 112.871094 Z M 47.554688 112.875 " fill-opacity="1" fill-rule="nonzero"/><path fill="#8338ec" d="M 58.191406 103.582031 L 57.960938 103.777344 L 57.488281 104.164062 C 57.179688 104.410156 56.863281 104.65625 56.554688 104.902344 L 57.054688 105.140625 L 57.9375 105.585938 L 58.570312 105.90625 C 58.570312 105.90625 58.589844 105.921875 58.597656 105.929688 C 58.597656 105.929688 58.648438 106.160156 58.691406 106.316406 C 58.738281 106.476562 58.796875 106.636719 58.886719 106.777344 C 58.929688 106.839844 58.964844 106.910156 59 106.980469 C 59.042969 107.074219 59.089844 107.199219 59.125 107.304688 C 59.203125 107.53125 59.28125 107.769531 59.351562 108.023438 C 59.496094 107.886719 59.660156 107.742188 59.820312 107.585938 C 59.90625 107.507812 59.984375 107.425781 60.066406 107.347656 L 60.125 107.285156 L 60.160156 107.242188 L 60.222656 107.164062 C 60.410156 106.925781 60.613281 106.695312 60.820312 106.46875 L 60.902344 106.378906 L 60.960938 106.378906 C 60.960938 106.378906 61.035156 106.371094 61.035156 106.371094 L 61.253906 106.355469 C 61.402344 106.351562 61.542969 106.335938 61.691406 106.316406 C 61.929688 106.28125 62.167969 106.222656 62.40625 106.152344 C 62.441406 106.179688 62.476562 106.210938 62.519531 106.230469 C 62.609375 106.203125 62.6875 106.167969 62.742188 106.132812 C 62.835938 106.074219 62.878906 106.003906 62.847656 105.921875 C 62.722656 105.585938 62.574219 105.246094 62.433594 104.917969 C 62.390625 104.820312 62.34375 104.71875 62.292969 104.621094 L 62.179688 104.398438 L 62.179688 104.382812 C 62.179688 104.382812 62.195312 104.320312 62.195312 104.320312 L 62.25 104.136719 L 62.398438 103.617188 C 62.457031 103.433594 62.484375 103.320312 62.601562 102.976562 L 62.878906 102.148438 C 62.476562 102.199219 62.078125 102.253906 61.675781 102.304688 L 60.988281 102.375 C 60.859375 102.386719 60.734375 102.410156 60.609375 102.4375 C 60.585938 102.445312 60.601562 102.445312 60.59375 102.449219 C 60.59375 102.449219 60.585938 102.449219 60.578125 102.449219 L 60.550781 102.4375 L 60.496094 102.402344 C 60.417969 102.359375 60.339844 102.308594 60.261719 102.253906 C 60.125 102.15625 59.996094 102.058594 59.863281 101.953125 L 59.765625 101.875 L 59.644531 101.785156 L 59.253906 101.503906 C 59.042969 101.355469 58.84375 101.269531 58.667969 101.171875 C 58.660156 101.277344 58.65625 101.375 58.640625 101.46875 C 58.613281 101.621094 58.585938 101.777344 58.554688 101.929688 L 58.507812 102.171875 L 58.484375 102.289062 L 58.472656 102.351562 L 58.472656 102.386719 C 58.421875 102.5625 58.378906 102.746094 58.351562 102.929688 L 58.3125 103.265625 L 58.289062 103.433594 L 58.289062 103.457031 C 58.289062 103.457031 58.28125 103.46875 58.28125 103.46875 L 58.175781 103.554688 Z M 58.191406 103.582031 " fill-opacity="1" fill-rule="nonzero"/><path fill="#8338ec" d="M 74.871094 99.949219 C 74.75 99.90625 74.625 99.871094 74.503906 99.84375 C 74.484375 99.84375 74.488281 99.84375 74.484375 99.851562 C 74.484375 99.851562 74.476562 99.851562 74.46875 99.851562 L 74.449219 99.824219 L 74.414062 99.765625 C 74.363281 99.691406 74.3125 99.613281 74.265625 99.535156 C 74.179688 99.386719 74.109375 99.242188 74.035156 99.09375 L 73.976562 98.980469 L 73.90625 98.847656 L 73.675781 98.425781 C 73.546875 98.199219 73.40625 98.039062 73.296875 97.878906 C 73.238281 97.96875 73.191406 98.054688 73.140625 98.128906 C 73.050781 98.257812 72.957031 98.382812 72.859375 98.507812 L 72.710938 98.707031 L 72.636719 98.804688 L 72.601562 98.855469 L 72.578125 98.882812 C 72.460938 99.023438 72.347656 99.171875 72.242188 99.316406 L 72.050781 99.605469 L 71.960938 99.753906 L 71.960938 99.773438 C 71.960938 99.773438 71.933594 99.78125 71.933594 99.78125 L 71.800781 99.816406 L 71.503906 99.886719 L 70.914062 100.035156 C 70.527344 100.117188 70.132812 100.210938 69.746094 100.292969 L 70.09375 100.730469 L 70.695312 101.507812 L 71.125 102.078125 C 71.125 102.078125 71.140625 102.101562 71.144531 102.105469 C 71.140625 102.105469 71.089844 102.339844 71.0625 102.492188 C 71.035156 102.660156 71.019531 102.832031 71.039062 103 C 71.046875 103.078125 71.054688 103.152344 71.054688 103.230469 C 71.054688 103.328125 71.039062 103.460938 71.027344 103.582031 C 71 103.820312 70.964844 104.066406 70.921875 104.328125 C 71.117188 104.269531 71.320312 104.207031 71.53125 104.136719 C 71.636719 104.101562 71.75 104.066406 71.855469 104.023438 L 71.933594 103.996094 L 71.980469 103.976562 L 72.074219 103.933594 C 72.347656 103.800781 72.636719 103.679688 72.917969 103.566406 L 73.027344 103.519531 L 73.078125 103.539062 L 73.15625 103.566406 L 73.359375 103.652344 C 73.492188 103.707031 73.632812 103.757812 73.773438 103.808594 C 74.003906 103.882812 74.242188 103.925781 74.488281 103.96875 C 74.511719 104.011719 74.53125 104.050781 74.558594 104.085938 C 74.652344 104.101562 74.734375 104.109375 74.804688 104.09375 C 74.910156 104.082031 74.980469 104.039062 74.988281 103.953125 C 75.023438 103.597656 75.039062 103.230469 75.046875 102.871094 C 75.046875 102.761719 75.046875 102.65625 75.046875 102.542969 L 75.046875 102.289062 C 75.046875 102.289062 75.046875 102.269531 75.046875 102.269531 L 75.09375 102.21875 L 75.21875 102.078125 L 75.578125 101.679688 C 75.707031 101.539062 75.78125 101.453125 76.035156 101.1875 L 76.648438 100.5625 C 76.265625 100.433594 75.882812 100.308594 75.5 100.183594 L 74.855469 99.941406 Z M 74.871094 99.949219 " fill-opacity="1" fill-rule="nonzero"/><path fill="#8338ec" d="M 83.644531 104.875 C 83.617188 104.953125 83.585938 105.023438 83.550781 105.09375 C 83.511719 105.183594 83.441406 105.296875 83.378906 105.394531 C 83.25 105.597656 83.109375 105.800781 82.957031 106.019531 C 83.152344 106.054688 83.363281 106.082031 83.585938 106.117188 C 83.699219 106.132812 83.8125 106.144531 83.925781 106.160156 L 84.007812 106.160156 C 84.007812 106.160156 84.066406 106.175781 84.066406 106.175781 L 84.171875 106.175781 C 84.480469 106.175781 84.78125 106.195312 85.089844 106.210938 L 85.21875 106.210938 C 85.21875 106.210938 85.253906 106.25 85.253906 106.25 L 85.308594 106.316406 L 85.457031 106.476562 C 85.554688 106.582031 85.652344 106.695312 85.757812 106.792969 C 85.933594 106.960938 86.132812 107.109375 86.335938 107.25 C 86.335938 107.292969 86.335938 107.339844 86.34375 107.390625 C 86.417969 107.4375 86.496094 107.480469 86.558594 107.507812 C 86.65625 107.542969 86.742188 107.539062 86.792969 107.460938 C 86.972656 107.152344 87.148438 106.828125 87.316406 106.511719 C 87.367188 106.414062 87.417969 106.316406 87.457031 106.214844 L 87.5625 105.984375 L 87.5625 105.96875 C 87.5625 105.96875 87.632812 105.949219 87.632812 105.949219 L 87.808594 105.878906 L 88.308594 105.675781 C 88.484375 105.605469 88.589844 105.554688 88.933594 105.429688 L 89.757812 105.128906 C 89.46875 104.847656 89.179688 104.566406 88.886719 104.285156 L 88.398438 103.792969 C 88.308594 103.703125 88.210938 103.617188 88.113281 103.539062 C 88.089844 103.527344 88.097656 103.539062 88.089844 103.539062 C 88.089844 103.539062 88.085938 103.539062 88.078125 103.539062 L 88.078125 103.503906 C 88.078125 103.503906 88.0625 103.433594 88.0625 103.433594 C 88.050781 103.34375 88.042969 103.25 88.035156 103.167969 C 88.019531 103 88.019531 102.832031 88.019531 102.667969 L 88.019531 102.542969 C 88.019531 102.542969 88.019531 102.394531 88.019531 102.394531 L 87.992188 101.910156 C 87.972656 101.648438 87.921875 101.445312 87.886719 101.25 C 87.796875 101.3125 87.71875 101.363281 87.640625 101.410156 C 87.5 101.488281 87.367188 101.558594 87.226562 101.636719 L 87.007812 101.75 L 86.898438 101.804688 L 86.839844 101.832031 L 86.8125 101.847656 C 86.644531 101.925781 86.480469 102 86.320312 102.09375 L 86.027344 102.269531 L 85.878906 102.359375 L 85.863281 102.375 L 85.84375 102.375 C 85.84375 102.375 85.710938 102.34375 85.710938 102.34375 L 85.414062 102.28125 L 84.824219 102.15625 C 84.4375 102.066406 84.050781 101.972656 83.65625 101.890625 L 83.777344 102.429688 L 83.988281 103.398438 L 84.128906 104.09375 C 84.128906 104.09375 84.128906 104.117188 84.128906 104.128906 C 84.121094 104.128906 83.980469 104.3125 83.890625 104.445312 C 83.792969 104.585938 83.707031 104.734375 83.652344 104.894531 Z M 83.644531 104.875 " fill-opacity="1" fill-rule="nonzero"/><path fill="#8338ec" d="M 98.789062 112.628906 C 98.820312 112.546875 98.847656 112.453125 98.882812 112.371094 C 98.945312 112.214844 99.015625 112.0625 99.085938 111.914062 L 99.136719 111.800781 L 99.199219 111.667969 L 99.382812 111.21875 C 99.480469 110.980469 99.515625 110.769531 99.570312 110.578125 C 99.464844 110.59375 99.367188 110.605469 99.277344 110.613281 C 99.121094 110.621094 98.960938 110.628906 98.804688 110.636719 L 98.558594 110.636719 C 98.558594 110.636719 98.433594 110.640625 98.433594 110.640625 L 98.371094 110.640625 C 98.371094 110.640625 98.335938 110.640625 98.335938 110.640625 C 98.152344 110.640625 97.96875 110.640625 97.785156 110.65625 L 97.441406 110.683594 L 97.273438 110.699219 L 97.253906 110.699219 C 97.253906 110.699219 97.230469 110.699219 97.230469 110.699219 L 97.125 110.613281 L 96.886719 110.433594 L 96.410156 110.058594 C 96.101562 109.8125 95.789062 109.5625 95.480469 109.316406 L 95.355469 109.855469 L 95.125 110.816406 L 94.949219 111.507812 C 94.949219 111.507812 94.949219 111.527344 94.933594 111.535156 C 94.933594 111.535156 94.714844 111.632812 94.582031 111.710938 C 94.433594 111.792969 94.292969 111.886719 94.175781 112.011719 C 94.117188 112.070312 94.0625 112.117188 94 112.167969 C 93.921875 112.222656 93.808594 112.300781 93.710938 112.363281 C 93.507812 112.488281 93.296875 112.617188 93.066406 112.742188 C 93.234375 112.855469 93.410156 112.980469 93.59375 113.101562 C 93.683594 113.164062 93.78125 113.226562 93.878906 113.285156 L 93.957031 113.328125 L 94.007812 113.355469 L 94.097656 113.402344 C 94.371094 113.535156 94.640625 113.683594 94.914062 113.832031 L 95.023438 113.886719 L 95.039062 113.945312 L 95.058594 114.023438 L 95.117188 114.234375 C 95.160156 114.371094 95.199219 114.511719 95.25 114.648438 C 95.335938 114.871094 95.445312 115.089844 95.566406 115.308594 C 95.546875 115.347656 95.53125 115.390625 95.511719 115.441406 C 95.558594 115.519531 95.609375 115.589844 95.65625 115.636719 C 95.734375 115.714844 95.8125 115.742188 95.882812 115.695312 C 96.183594 115.488281 96.480469 115.277344 96.765625 115.0625 C 96.859375 115 96.941406 114.929688 97.027344 114.859375 L 97.222656 114.695312 L 97.238281 114.683594 L 97.308594 114.683594 C 97.308594 114.683594 97.5 114.703125 97.5 114.703125 L 98.039062 114.730469 C 98.230469 114.746094 98.347656 114.753906 98.707031 114.78125 L 99.570312 114.863281 C 99.429688 114.484375 99.289062 114.105469 99.15625 113.726562 L 98.9375 113.074219 C 98.894531 112.953125 98.847656 112.835938 98.789062 112.722656 C 98.777344 112.699219 98.777344 112.722656 98.769531 112.707031 C 98.769531 112.707031 98.769531 112.707031 98.761719 112.699219 L 98.761719 112.664062 C 98.761719 112.664062 98.789062 112.601562 98.789062 112.601562 Z M 98.789062 112.628906 " fill-opacity="1" fill-rule="nonzero"/><path fill="#8338ec" d="M 105.773438 123.984375 C 105.625 123.925781 105.484375 123.863281 105.339844 123.800781 L 105.113281 123.703125 L 105 123.652344 L 104.945312 123.625 L 104.917969 123.613281 C 104.753906 123.527344 104.585938 123.449219 104.417969 123.378906 L 104.09375 123.261719 L 103.933594 123.203125 L 103.914062 123.203125 C 103.914062 123.203125 103.898438 123.183594 103.898438 123.183594 L 103.835938 123.0625 L 103.703125 122.789062 L 103.425781 122.25 C 103.257812 121.890625 103.082031 121.53125 102.914062 121.171875 L 102.570312 121.601562 L 101.945312 122.367188 L 101.488281 122.914062 C 101.488281 122.914062 101.472656 122.929688 101.46875 122.9375 C 101.46875 122.929688 101.230469 122.9375 101.074219 122.9375 C 100.90625 122.945312 100.738281 122.972656 100.574219 123.027344 C 100.496094 123.054688 100.425781 123.078125 100.351562 123.089844 C 100.253906 123.113281 100.117188 123.125 100.007812 123.140625 C 99.765625 123.167969 99.519531 123.183594 99.253906 123.203125 C 99.351562 123.378906 99.457031 123.570312 99.578125 123.757812 C 99.632812 123.855469 99.695312 123.957031 99.761719 124.046875 L 99.808594 124.117188 L 99.84375 124.167969 L 99.90625 124.25 C 100.097656 124.488281 100.273438 124.742188 100.457031 124.988281 L 100.527344 125.085938 L 100.527344 125.144531 C 100.527344 125.144531 100.503906 125.21875 100.503906 125.21875 L 100.46875 125.4375 C 100.449219 125.585938 100.425781 125.726562 100.414062 125.875 C 100.390625 126.113281 100.398438 126.359375 100.414062 126.605469 C 100.378906 126.632812 100.34375 126.660156 100.308594 126.695312 C 100.316406 126.785156 100.328125 126.871094 100.351562 126.941406 C 100.386719 127.039062 100.441406 127.101562 100.527344 127.089844 C 100.882812 127.039062 101.242188 126.976562 101.59375 126.90625 C 101.699219 126.886719 101.804688 126.855469 101.917969 126.835938 L 102.164062 126.773438 L 102.183594 126.773438 C 102.183594 126.773438 102.238281 126.808594 102.238281 126.808594 L 102.402344 126.898438 L 102.871094 127.160156 C 103.042969 127.25 103.140625 127.308594 103.457031 127.496094 L 104.199219 127.953125 C 104.242188 127.550781 104.277344 127.152344 104.320312 126.75 L 104.402344 126.0625 C 104.417969 125.9375 104.425781 125.808594 104.425781 125.683594 C 104.425781 125.664062 104.417969 125.675781 104.410156 125.664062 C 104.410156 125.664062 104.410156 125.65625 104.410156 125.648438 L 104.433594 125.621094 L 104.480469 125.570312 C 104.542969 125.507812 104.609375 125.4375 104.671875 125.382812 C 104.796875 125.269531 104.925781 125.164062 105.050781 125.058594 L 105.148438 124.980469 L 105.261719 124.882812 L 105.621094 124.558594 C 105.808594 124.382812 105.933594 124.214844 106.070312 124.066406 C 105.964844 124.039062 105.871094 124.003906 105.789062 123.96875 Z M 105.773438 123.984375 " fill-opacity="1" fill-rule="nonzero"/><path fill="#8338ec" d="M 103.847656 139.761719 L 103.882812 139.75 L 103.949219 139.71875 C 104.03125 139.683594 104.117188 139.65625 104.207031 139.628906 C 104.367188 139.578125 104.53125 139.542969 104.691406 139.503906 L 104.8125 139.476562 L 104.953125 139.441406 L 105.414062 139.304688 C 105.660156 139.230469 105.851562 139.128906 106.035156 139.058594 C 105.957031 138.988281 105.886719 138.917969 105.824219 138.847656 C 105.71875 138.730469 105.613281 138.617188 105.515625 138.492188 L 105.359375 138.308594 L 105.28125 138.210938 L 105.238281 138.160156 L 105.21875 138.132812 C 105.105469 137.984375 104.992188 137.84375 104.867188 137.710938 L 104.628906 137.464844 L 104.507812 137.347656 L 104.488281 137.332031 L 104.488281 137.3125 C 104.488281 137.3125 104.480469 137.175781 104.480469 137.175781 L 104.480469 136.875 C 104.480469 136.875 104.46875 136.269531 104.46875 136.269531 C 104.46875 135.871094 104.46875 135.476562 104.46875 135.078125 L 103.96875 135.316406 L 103.070312 135.730469 L 102.421875 136.023438 C 102.421875 136.023438 102.402344 136.03125 102.394531 136.039062 C 102.394531 136.03125 102.183594 135.933594 102.035156 135.871094 C 101.882812 135.808594 101.71875 135.75 101.542969 135.738281 C 101.46875 135.730469 101.390625 135.714844 101.3125 135.695312 C 101.214844 135.667969 101.089844 135.632812 100.976562 135.589844 C 100.75 135.511719 100.519531 135.421875 100.273438 135.324219 C 100.289062 135.527344 100.300781 135.738281 100.324219 135.960938 C 100.335938 136.074219 100.34375 136.1875 100.355469 136.300781 L 100.371094 136.382812 L 100.371094 136.441406 C 100.371094 136.441406 100.398438 136.539062 100.398438 136.539062 C 100.46875 136.839844 100.519531 137.140625 100.566406 137.445312 L 100.589844 137.5625 L 100.5625 137.613281 L 100.511719 137.675781 L 100.386719 137.851562 C 100.300781 137.972656 100.21875 138.089844 100.148438 138.21875 C 100.019531 138.429688 99.921875 138.652344 99.832031 138.878906 C 99.789062 138.882812 99.738281 138.898438 99.695312 138.917969 C 99.660156 139.003906 99.640625 139.089844 99.632812 139.160156 C 99.621094 139.265625 99.648438 139.347656 99.730469 139.371094 C 100.078125 139.480469 100.425781 139.574219 100.777344 139.671875 C 100.882812 139.699219 100.988281 139.71875 101.101562 139.742188 L 101.347656 139.789062 L 101.367188 139.789062 C 101.367188 139.789062 101.402344 139.855469 101.402344 139.855469 L 101.507812 140.007812 L 101.820312 140.449219 C 101.929688 140.605469 101.996094 140.703125 102.199219 141.007812 L 102.667969 141.738281 C 102.878906 141.390625 103.089844 141.046875 103.292969 140.703125 L 103.667969 140.121094 C 103.738281 140.015625 103.792969 139.902344 103.847656 139.785156 C 103.855469 139.761719 103.847656 139.769531 103.847656 139.761719 C 103.847656 139.761719 103.847656 139.753906 103.847656 139.75 Z M 103.847656 139.761719 " fill-opacity="1" fill-rule="nonzero"/><path fill="#8338ec" d="M 98.929688 150.167969 L 99.058594 149.894531 L 99.3125 149.34375 C 99.484375 148.988281 99.65625 148.628906 99.832031 148.269531 L 99.277344 148.269531 C 99.277344 148.269531 98.285156 148.257812 98.285156 148.257812 L 97.574219 148.242188 C 97.574219 148.242188 97.554688 148.242188 97.539062 148.242188 C 97.539062 148.234375 97.394531 148.050781 97.289062 147.933594 C 97.175781 147.808594 97.046875 147.6875 96.90625 147.597656 C 96.835938 147.554688 96.773438 147.511719 96.71875 147.460938 C 96.640625 147.398438 96.542969 147.308594 96.464844 147.222656 C 96.296875 147.054688 96.128906 146.871094 95.945312 146.675781 C 95.867188 146.867188 95.789062 147.0625 95.714844 147.273438 C 95.671875 147.378906 95.636719 147.484375 95.601562 147.597656 L 95.574219 147.679688 L 95.558594 147.738281 L 95.53125 147.835938 C 95.460938 148.136719 95.375 148.425781 95.292969 148.71875 L 95.257812 148.839844 L 95.207031 148.867188 L 95.136719 148.910156 L 94.949219 149.015625 C 94.820312 149.085938 94.695312 149.164062 94.570312 149.238281 C 94.363281 149.375 94.183594 149.535156 93.992188 149.695312 C 93.949219 149.683594 93.902344 149.675781 93.851562 149.675781 C 93.78125 149.738281 93.726562 149.800781 93.691406 149.863281 C 93.632812 149.957031 93.621094 150.039062 93.691406 150.097656 C 93.949219 150.351562 94.222656 150.582031 94.5 150.820312 C 94.582031 150.890625 94.667969 150.960938 94.757812 151.023438 L 94.960938 151.179688 L 94.976562 151.191406 L 94.976562 151.261719 C 94.976562 151.261719 95.011719 151.445312 95.011719 151.445312 L 95.101562 151.980469 C 95.136719 152.167969 95.152344 152.28125 95.199219 152.648438 L 95.3125 153.511719 C 95.648438 153.292969 95.988281 153.070312 96.324219 152.851562 L 96.914062 152.492188 C 97.019531 152.421875 97.125 152.351562 97.222656 152.269531 C 97.238281 152.253906 97.222656 152.253906 97.230469 152.246094 C 97.230469 152.246094 97.230469 152.238281 97.238281 152.234375 L 97.273438 152.234375 C 97.273438 152.234375 97.34375 152.238281 97.34375 152.238281 C 97.433594 152.246094 97.527344 152.253906 97.609375 152.269531 C 97.773438 152.296875 97.941406 152.332031 98.101562 152.367188 L 98.222656 152.394531 L 98.371094 152.421875 L 98.847656 152.5 C 99.101562 152.542969 99.3125 152.535156 99.515625 152.542969 C 99.472656 152.445312 99.445312 152.351562 99.414062 152.261719 C 99.375 152.105469 99.332031 151.957031 99.289062 151.804688 L 99.226562 151.574219 L 99.199219 151.453125 L 99.183594 151.398438 L 99.183594 151.363281 C 99.140625 151.179688 99.101562 151.003906 99.042969 150.828125 L 98.9375 150.503906 L 98.882812 150.34375 L 98.867188 150.320312 L 98.867188 150.300781 C 98.867188 150.300781 98.929688 150.175781 98.929688 150.175781 Z M 98.929688 150.167969 " fill-opacity="1" fill-rule="nonzero"/><path fill="#8338ec" d="M 88.292969 159.460938 L 88.527344 159.265625 L 88.996094 158.878906 C 89.304688 158.632812 89.621094 158.386719 89.933594 158.140625 L 89.433594 157.902344 L 88.546875 157.460938 L 87.914062 157.136719 C 87.914062 157.136719 87.894531 157.121094 87.886719 157.117188 C 87.886719 157.117188 87.839844 156.882812 87.796875 156.730469 C 87.746094 156.566406 87.691406 156.40625 87.597656 156.257812 C 87.558594 156.195312 87.523438 156.125 87.488281 156.054688 C 87.445312 155.964844 87.394531 155.835938 87.359375 155.730469 C 87.28125 155.507812 87.207031 155.269531 87.136719 155.015625 C 86.988281 155.148438 86.828125 155.296875 86.664062 155.449219 C 86.582031 155.527344 86.503906 155.613281 86.417969 155.6875 L 86.363281 155.753906 L 86.328125 155.792969 L 86.265625 155.871094 C 86.074219 156.109375 85.871094 156.34375 85.667969 156.566406 L 85.582031 156.660156 L 85.527344 156.660156 C 85.527344 156.660156 85.449219 156.664062 85.449219 156.664062 L 85.230469 156.679688 C 85.085938 156.6875 84.945312 156.699219 84.796875 156.722656 C 84.558594 156.757812 84.320312 156.8125 84.078125 156.882812 C 84.042969 156.855469 84.007812 156.828125 83.96875 156.804688 C 83.875 156.835938 83.796875 156.871094 83.742188 156.90625 C 83.652344 156.960938 83.609375 157.03125 83.636719 157.117188 C 83.761719 157.453125 83.910156 157.789062 84.050781 158.121094 C 84.09375 158.21875 84.144531 158.316406 84.191406 158.414062 L 84.304688 158.640625 L 84.304688 158.652344 C 84.304688 158.652344 84.289062 158.71875 84.289062 158.71875 L 84.234375 158.898438 L 84.085938 159.417969 C 84.03125 159.601562 84.003906 159.714844 83.882812 160.058594 L 83.609375 160.886719 C 84.007812 160.839844 84.410156 160.78125 84.808594 160.734375 L 85.5 160.664062 C 85.625 160.648438 85.75 160.628906 85.878906 160.601562 C 85.898438 160.59375 85.886719 160.59375 85.890625 160.585938 C 85.890625 160.585938 85.898438 160.585938 85.90625 160.585938 L 85.933594 160.601562 L 85.992188 160.636719 C 86.066406 160.683594 86.144531 160.726562 86.222656 160.78125 C 86.363281 160.882812 86.488281 160.980469 86.621094 161.085938 L 86.722656 161.160156 L 86.839844 161.253906 L 87.234375 161.535156 C 87.445312 161.683594 87.640625 161.765625 87.816406 161.863281 C 87.824219 161.757812 87.832031 161.660156 87.84375 161.570312 C 87.875 161.414062 87.902344 161.261719 87.929688 161.105469 L 87.980469 160.867188 L 88 160.746094 L 88.015625 160.683594 L 88.015625 160.648438 C 88.0625 160.472656 88.105469 160.289062 88.132812 160.109375 L 88.175781 159.769531 L 88.195312 159.601562 L 88.195312 159.582031 C 88.195312 159.582031 88.203125 159.566406 88.203125 159.566406 L 88.308594 159.484375 Z M 88.292969 159.460938 " fill-opacity="1" fill-rule="nonzero"/><g clip-path="url(#8b4d70dfc3)"><path fill="#8338ec" d="M 374.261719 132.433594 C 374.734375 129.308594 374.886719 126.121094 374.929688 122.902344 C 374.945312 121.285156 374.957031 119.699219 374.921875 118.046875 C 374.894531 117.210938 374.878906 116.375 374.832031 115.546875 L 374.640625 113.050781 C 373.691406 102.964844 369.800781 93.175781 363.640625 85.113281 C 362.226562 83.207031 360.640625 81.445312 359.015625 79.710938 C 357.332031 78.039062 355.609375 76.394531 353.71875 74.945312 C 350.960938 72.769531 347.964844 70.886719 344.832031 69.277344 C 344.160156 68.90625 343.292969 68.335938 342.816406 68.230469 C 339.914062 67.625 337.238281 66.742188 334.511719 65.898438 C 331.800781 65.054688 329.0625 64.167969 326.230469 63.671875 C 324.605469 63.398438 322.992188 62.777344 321.464844 62.820312 C 320.0625 62.820312 318.804688 62.960938 317.496094 63.082031 C 316.199219 63.207031 314.90625 63.332031 313.613281 63.410156 C 311.019531 63.574219 308.414062 63.53125 305.773438 62.835938 C 305.496094 62.765625 304.796875 62.871094 304.289062 62.90625 C 299.785156 63.1875 295.253906 63.433594 290.78125 63.753906 C 286.375 64.070312 285.25 63.894531 284.019531 62.386719 C 276.628906 63.691406 268.578125 62.742188 260.773438 63.136719 C 256.9375 63.332031 252.28125 62.988281 247.96875 63.085938 C 246.441406 63.121094 244.554688 63.320312 243.441406 63.101562 C 239.578125 62.320312 235.714844 63.171875 231.859375 62.949219 C 228.691406 62.765625 225.375 62.890625 222.140625 62.800781 C 218.679688 62.703125 215.039062 62.214844 211.851562 62.457031 C 209.222656 62.652344 207.796875 62.386719 205.949219 62.042969 C 205.183594 61.902344 204.25 61.667969 203.523438 61.71875 C 197.960938 62.125 192.417969 62.527344 186.855469 62.933594 C 185.222656 63.046875 183.128906 63.257812 181.902344 63.023438 C 175.410156 61.796875 168.453125 62.84375 161.5 62.238281 C 161.96875 62.777344 162.25 63.109375 162.863281 63.804688 C 158.824219 63.679688 155.5 63.574219 152.167969 63.46875 L 151.453125 62.960938 C 152.457031 62.800781 153.460938 62.636719 154.753906 62.433594 C 153.945312 62.210938 153.371094 61.914062 152.808594 61.921875 C 149.726562 61.941406 146.632812 62.027344 143.554688 62.105469 C 139.441406 62.203125 135.722656 63.207031 131.269531 62.652344 C 128.878906 62.355469 126.15625 61.941406 123.84375 62.082031 C 118.292969 62.414062 112.910156 62.808594 107.472656 61.992188 C 103.484375 63.03125 99.253906 62.773438 94.546875 62.617188 C 90.121094 62.46875 85.449219 63.191406 80.867188 63.503906 C 80.167969 63.550781 79.378906 63.445312 78.628906 63.425781 C 76.324219 63.363281 74.003906 63.347656 71.722656 63.234375 C 68.335938 63.066406 63.945312 64.632812 61.589844 62.589844 C 61.515625 62.527344 60.875 62.519531 60.496094 62.511719 C 59.042969 62.492188 57.578125 62.46875 56.117188 62.449219 C 54.59375 62.457031 53.027344 62.441406 51.488281 62.566406 C 48.398438 62.777344 45.3125 63.222656 42.34375 64.050781 C 39.414062 64.851562 36.59375 65.960938 33.910156 67.28125 C 31.222656 68.609375 28.691406 70.199219 26.269531 71.910156 C 25.277344 72.585938 24.238281 73.546875 23.375 74.003906 C 21.175781 75.214844 19.082031 76.71875 17.21875 78.496094 C 15.335938 80.25 13.617188 82.21875 12.078125 84.332031 C 9.625 87.664062 7.277344 91.070312 5.402344 94.777344 C 3.519531 98.46875 2.074219 102.4375 1.46875 106.566406 C 1.382812 107.058594 1.160156 107.609375 1.082031 108.140625 C 0.984375 108.71875 0.886719 109.300781 0.78125 109.890625 C 0.679688 110.480469 0.617188 111.078125 0.527344 111.675781 C 0.335938 112.871094 0.261719 114.085938 0.167969 115.277344 C 0.0898438 116.464844 0.105469 117.652344 0.125 118.757812 C 0.175781 119.816406 0.265625 120.835938 0.40625 121.777344 C 1.355469 128.03125 1.039062 134.28125 1.160156 140.542969 C 1.238281 144.441406 1.054688 148.382812 1.082031 152.296875 C 1.097656 154.71875 1.40625 157.164062 1.355469 159.558594 C 1.292969 162.714844 1.820312 166.746094 0.261719 168.019531 C 0.191406 173.640625 0.121094 178.957031 0.0507812 184.273438 C 0 188.941406 0.15625 193.34375 1.152344 197.382812 C 1.453125 198.601562 1.292969 202.613281 1.089844 202.792969 C 0.230469 203.558594 0.34375 204.84375 0.371094 206.882812 C 0.449219 213.386719 1.546875 219.480469 0.992188 226.363281 C 0.714844 229.757812 1.265625 233.707031 1.390625 237.421875 C 1.449219 239.226562 1.511719 241.1875 1.335938 242.867188 C 1.027344 245.84375 0.746094 248.808594 0.640625 251.804688 C 0.589844 253.300781 0.578125 254.804688 0.640625 256.3125 C 0.667969 257.078125 0.703125 257.816406 0.78125 258.609375 C 0.855469 259.40625 0.960938 260.207031 1.082031 261 C 1.171875 261.519531 1.082031 262.285156 1.125 262.9375 L 1.179688 263.929688 L 1.277344 264.917969 C 1.347656 265.578125 1.398438 266.246094 1.488281 266.90625 C 1.691406 268.222656 1.898438 269.535156 2.261719 270.785156 C 3.230469 274.3125 4.679688 277.613281 6.589844 281.097656 C 5.859375 281.015625 5.578125 280.988281 5.5625 280.988281 C 7.242188 284.5 9.175781 287.667969 11.410156 290.570312 C 13.230469 292.910156 15.230469 295.085938 17.386719 297.089844 C 19.542969 299.089844 21.871094 300.902344 24.28125 302.570312 C 26.097656 303.859375 27.917969 305.289062 29.84375 306.539062 C 34.082031 308.84375 38.871094 310.464844 43.773438 311.34375 C 46.480469 311.855469 49.332031 312.046875 51.945312 312.355469 C 53.113281 312.539062 54.285156 312.609375 55.453125 312.707031 C 56.617188 312.789062 57.71875 312.820312 58.851562 312.839844 C 61.101562 312.867188 63.332031 312.777344 65.574219 312.398438 C 65.980469 312.328125 66.726562 312.320312 67.078125 312.398438 C 71.246094 313.375 75.460938 312.320312 79.695312 312.410156 C 84.78125 312.523438 89.980469 311.425781 95.109375 312.515625 C 95.515625 312.601562 96.136719 312.636719 96.625 312.613281 C 102.203125 312.347656 107.804688 311.644531 113.261719 312.796875 C 113.566406 312.859375 114.246094 312.679688 114.746094 312.679688 C 115.996094 312.683594 117.253906 312.777344 118.496094 312.769531 L 130.777344 312.636719 C 131.003906 312.636719 131.382812 312.566406 131.421875 312.507812 C 132.078125 311.660156 133.890625 311.882812 135.75 311.871094 C 140.035156 311.828125 144.308594 311.644531 148.585938 311.527344 C 149.105469 311.511719 149.640625 311.496094 150.144531 311.527344 C 155.941406 311.871094 161.582031 311.660156 167.378906 311.320312 C 171.539062 311.082031 175.992188 311.425781 180.320312 311.476562 C 182.257812 311.496094 184.210938 311.386719 186.144531 311.40625 L 202.261719 311.625 C 208.125 311.671875 213.832031 311.027344 219.929688 311.574219 C 223.042969 311.855469 227.234375 311.636719 230.332031 310.660156 C 231.367188 310.332031 233.613281 310.445312 235.765625 310.332031 C 236.082031 310.167969 236.847656 309.777344 237.605469 309.382812 C 232.105469 307.710938 228.296875 307.886719 225.902344 309.292969 C 221.796875 308.925781 217.617188 308.53125 213.394531 308.203125 C 212.460938 308.132812 211.140625 308.167969 210.402344 308.34375 C 205.113281 309.613281 198.953125 308.820312 193.578125 308.828125 C 186.4375 308.828125 179.203125 308.449219 171.898438 308.609375 C 167.378906 308.714844 162.800781 308.476562 158.238281 308.449219 C 156.054688 308.433594 153.835938 308.660156 151.691406 308.582031 C 148.902344 308.484375 146.210938 308.082031 143.667969 308.914062 C 143.136719 309.089844 141.484375 308.953125 140.445312 308.855469 C 134.691406 308.292969 129.050781 308.433594 123.589844 309.199219 C 121.460938 309.503906 119.796875 309.839844 117.195312 309.472656 C 114.738281 309.128906 111.472656 308.863281 109.097656 309.125 C 101.644531 309.9375 94.148438 307.984375 86.863281 309.296875 C 86.617188 309.339844 86.125 309.199219 85.757812 309.207031 C 82.96875 309.257812 80.054688 309.164062 77.414062 309.402344 C 72.601562 309.847656 68.210938 309.960938 63.664062 309.023438 C 62.117188 308.707031 59.574219 308.890625 57.503906 308.925781 C 56.078125 308.96875 54.777344 309.15625 53.421875 309.152344 C 44.464844 308.835938 35.535156 306.152344 27.925781 301.253906 C 27.441406 300.964844 26.898438 300.445312 26.675781 300.101562 C 25.199219 297.964844 23.199219 296.996094 21.144531 295.683594 C 20.710938 295.394531 20.128906 294.988281 19.621094 294.585938 C 19.136719 294.167969 18.714844 293.765625 18.597656 293.519531 C 17.445312 291.203125 15.5625 289.621094 14.007812 287.535156 C 12.328125 285.347656 10.496094 282.546875 9.898438 280.382812 C 8.929688 276.699219 7.917969 274.261719 6.335938 271.128906 C 5.164062 268.726562 4.074219 265.925781 4.171875 262.1875 L 4.214844 260.90625 L 4.320312 259.636719 C 4.382812 258.792969 4.460938 257.941406 4.550781 257.066406 C 4.726562 255.324219 4.875 253.574219 4.972656 251.804688 C 5.171875 248.269531 5.144531 244.660156 4.617188 240.933594 C 4.488281 240.050781 4.726562 238.765625 4.742188 237.652344 C 4.785156 232.8125 4.875 227.964844 4.820312 223.132812 C 4.769531 219.101562 4.445312 215.089844 4.441406 211.0625 C 4.441406 208.019531 4.8125 204.980469 4.875 201.914062 C 4.945312 198.585938 4.671875 195.136719 4.875 191.910156 C 5.058594 189.003906 4.828125 186.925781 4.097656 185.574219 C 3.46875 184.414062 3.539062 183.410156 3.75 181.761719 C 4.082031 179.152344 4.511719 176.484375 4.566406 173.785156 C 4.671875 168.601562 4.652344 163.347656 4.503906 158.167969 C 4.339844 152.546875 5.382812 146.773438 4.195312 141.246094 C 3.992188 140.296875 4.214844 138.484375 4.277344 137.09375 C 4.46875 133.074219 4.699219 129.070312 4.863281 125.042969 C 4.898438 124.132812 4.796875 122.894531 4.601562 122.214844 C 4.277344 121.101562 4.152344 120.050781 4.171875 119.015625 C 4.203125 117.992188 4.410156 117.007812 4.714844 116.003906 C 5.515625 113.699219 5.972656 111.367188 5.816406 108.65625 C 5.621094 105.324219 6.679688 101.574219 8.269531 98.144531 C 9.433594 95.558594 11.058594 93.242188 12.535156 90.886719 C 13.953125 88.632812 15.222656 86.257812 16.875 84.101562 C 18.503906 81.949219 20.484375 79.996094 23.070312 78.816406 C 23.246094 78.734375 23.585938 78.320312 23.878906 78.078125 C 26.027344 76.28125 28.292969 74.546875 30.769531 73.246094 C 33.25 71.925781 35.84375 70.835938 38.5 69.957031 C 41.15625 69.082031 43.886719 68.46875 46.632812 68.035156 C 47.085938 67.964844 47.652344 67.789062 47.984375 67.625 C 50.265625 66.574219 52.753906 66.144531 55.199219 66.25 C 57.648438 66.320312 60.117188 66.726562 62.503906 67.050781 C 65.246094 67.429688 67.78125 67.472656 69.980469 66.921875 C 73.578125 66.03125 76.792969 66.261719 80.238281 66.957031 C 83.417969 67.605469 86.496094 67.84375 89.902344 66.929688 C 91.457031 66.507812 93.921875 66.296875 95.960938 66.296875 C 100.113281 66.3125 104.257812 66.542969 108.410156 66.664062 C 109.152344 66.683594 109.933594 66.601562 110.683594 66.542969 C 114.007812 66.304688 117.441406 65.742188 120.632812 65.871094 C 126.75 66.117188 133.125 66.277344 138.597656 67.4375 C 141.292969 68.003906 143.296875 67.589844 145.523438 67.070312 C 146.527344 66.832031 148.214844 66.734375 149.421875 66.824219 C 154.332031 67.191406 159.152344 67.683594 164.0625 66.78125 C 165.003906 66.609375 166.382812 66.566406 167.449219 66.636719 C 174.355469 67.097656 181.464844 66.152344 188.328125 66.980469 C 188.960938 67.058594 189.921875 66.753906 190.761719 66.734375 C 192.023438 66.707031 193.757812 66.59375 194.503906 66.816406 C 197.414062 67.6875 200.328125 67.550781 203.046875 66.894531 C 205.113281 66.402344 206.847656 66.304688 208.757812 66.847656 C 211.089844 67.507812 213.726562 67.34375 215.59375 66.816406 C 218.777344 65.917969 221.929688 66.269531 225.164062 66.539062 C 227.15625 66.699219 229.027344 67.0625 231.035156 67.199219 C 234.613281 67.4375 236.425781 66.726562 235.25 65.351562 C 237.359375 65.917969 238.980469 66.410156 240.757812 66.824219 C 244.945312 67.800781 249.609375 67.789062 254.394531 67.519531 C 256.980469 67.378906 259.582031 67.253906 262.1875 67.183594 C 264.5625 67.121094 266.964844 67.164062 269.34375 67.121094 C 273.398438 67.050781 277.285156 66.53125 281.527344 66.839844 C 284.296875 67.042969 287.429688 67.027344 290.191406 66.816406 C 293.835938 66.539062 297.117188 66.285156 300.664062 66.988281 C 302.324219 67.316406 305.363281 67.621094 306.480469 67.34375 C 308.917969 66.734375 311.378906 66.480469 313.894531 66.433594 C 315.152344 66.402344 316.421875 66.433594 317.707031 66.496094 C 318.992188 66.550781 320.308594 66.636719 321.601562 66.789062 C 324.429688 67.085938 327.796875 67.269531 330.101562 68.203125 C 331.160156 68.617188 332.167969 68.996094 333.148438 69.3125 C 334.121094 69.675781 335.089844 69.902344 336.023438 70.199219 C 336.964844 70.464844 337.90625 70.683594 338.832031 70.929688 C 339.304688 71.035156 339.773438 71.144531 340.253906 71.25 C 340.722656 71.363281 341.195312 71.484375 341.671875 71.601562 C 343.625 72.066406 344.832031 72.988281 346.503906 74.222656 C 350.367188 77.125 354.261719 80.460938 357.414062 84.296875 C 357.660156 84.570312 358.097656 84.761719 358.433594 85.078125 C 359.039062 85.652344 359.691406 86.222656 360.269531 86.855469 C 360.863281 87.464844 361.433594 88.097656 361.875 88.800781 C 363.5625 91.292969 365.226562 94.113281 366.238281 96.5625 C 366.660156 97.679688 367.132812 98.714844 367.511719 99.753906 C 367.714844 100.265625 367.917969 100.773438 368.113281 101.269531 C 368.304688 101.777344 368.488281 102.273438 368.671875 102.78125 C 369.0625 103.773438 369.359375 104.789062 369.738281 105.800781 C 370.027344 106.835938 370.398438 107.875 370.652344 108.976562 C 371.355469 111.605469 371.664062 114.464844 371.667969 117.324219 C 371.691406 118.734375 371.613281 120.238281 371.558594 121.699219 C 371.488281 123.167969 371.417969 124.621094 371.347656 126.0625 C 370.910156 134.386719 370.804688 142.609375 371.207031 150.941406 C 371.269531 152.199219 371.15625 153.90625 370.898438 154.859375 C 370.011719 158.113281 370.074219 161.140625 370.875 164.351562 C 371.136719 165.390625 371.453125 166.550781 371.496094 167.746094 C 371.585938 170.035156 371.773438 172.84375 371.429688 174.601562 C 370.9375 177.125 370.734375 179.378906 371.085938 181.902344 C 372.148438 189.53125 371.285156 197.328125 371.347656 205.027344 C 371.402344 211.914062 371.144531 218.824219 371.03125 225.726562 C 370.953125 230.480469 370.855469 235.238281 370.820312 239.992188 C 370.804688 241.625 370.847656 243.34375 371.015625 244.882812 C 371.464844 248.972656 372.253906 252.660156 371.429688 257.410156 C 371.320312 258.105469 371.214844 258.8125 371.121094 259.550781 C 371.039062 260.289062 370.972656 261.0625 370.863281 261.84375 C 370.699219 263.402344 370.476562 265.011719 370.222656 266.527344 C 369.828125 268.917969 369.597656 271.382812 368.902344 273.765625 C 367.769531 277.453125 366.167969 280.992188 364.300781 284.351562 C 362.4375 287.714844 360.28125 290.878906 358.027344 293.949219 C 357.746094 294.335938 357.429688 294.742188 357.105469 295.136719 C 356.769531 295.523438 356.402344 295.878906 356.039062 296.203125 C 355.441406 296.738281 355.003906 297.144531 354.703125 297.46875 C 354.402344 297.796875 354.238281 298.058594 354.183594 298.261719 C 354.070312 298.667969 354.375 298.859375 354.800781 298.972656 C 354.226562 299.519531 353.648438 299.988281 353.179688 300.375 C 352.707031 300.769531 352.335938 301.078125 352.117188 301.253906 C 350.691406 301.351562 349.792969 301.007812 348.472656 301.5625 C 346.722656 302.351562 344.539062 303.679688 342.507812 304.710938 C 342.035156 304.929688 341.3125 305.75 341.476562 305.898438 C 341.699219 306.09375 342.296875 306.144531 343.113281 306.074219 C 343.90625 305.96875 344.929688 305.75 346.007812 305.414062 C 347.058594 305.046875 348.207031 304.625 349.195312 304.085938 C 349.695312 303.824219 350.171875 303.558594 350.601562 303.292969 C 351.023438 303.011719 351.394531 302.730469 351.710938 302.464844 C 352.257812 302.011719 352.820312 301.558594 353.398438 301.085938 C 353.964844 300.617188 354.578125 300.179688 355.132812 299.703125 C 359.164062 296.421875 362.921875 292.632812 365.707031 288.230469 C 368.992188 283.078125 370.96875 277.296875 372.183594 271.460938 C 372.335938 270.574219 372.644531 269.675781 372.851562 268.777344 C 373.582031 265.714844 373.988281 262.574219 374.15625 259.390625 C 374.3125 256.222656 374.382812 253.089844 374.492188 249.855469 C 373.925781 249.792969 373.644531 249.757812 373.347656 249.722656 C 373.585938 247.601562 373.898438 245.980469 373.9375 244.300781 C 374.023438 241.089844 373.902344 237.84375 373.960938 234.625 C 374.058594 229.019531 374.277344 223.425781 374.339844 217.820312 C 374.425781 210.242188 374.445312 202.652344 374.429688 195.066406 C 374.429688 192.921875 374.183594 190.792969 374.136719 188.644531 C 374.085938 186.425781 374.128906 184.183594 374.15625 181.957031 C 374.171875 180.707031 374.289062 179.449219 374.261719 178.210938 C 374.113281 171.082031 373.855469 163.964844 373.792969 156.828125 C 373.742188 150.988281 373.890625 145.128906 373.988281 139.292969 C 374.03125 136.988281 374.007812 134.480469 374.3125 132.457031 Z M 374.261719 132.433594 " fill-opacity="1" fill-rule="nonzero"/></g><path fill="#8338ec" d="M 260 308.878906 C 259.636719 309.296875 259.230469 309.621094 259.089844 309.960938 C 258.933594 310.339844 259.019531 310.730469 258.996094 311.117188 C 260.058594 311.117188 261.125 311.140625 262.1875 311.117188 C 263.527344 311.082031 264.863281 310.949219 266.183594 310.972656 C 271.390625 311.039062 273.636719 310.5 273.671875 309.101562 C 274.460938 309.046875 275.246094 308.996094 276.59375 308.90625 C 270.671875 307.5625 265.46875 309.242188 260 308.890625 Z M 260 308.878906 " fill-opacity="1" fill-rule="nonzero"/><path fill="#8338ec" d="M 333.675781 308.042969 C 332.0625 308.617188 330.542969 309.261719 328.960938 309.785156 C 328.457031 309.964844 328.0625 310.199219 327.078125 310.585938 C 326.523438 310.28125 326.039062 310.023438 325.984375 309.988281 C 323.953125 310.308594 322.675781 310.457031 320.109375 310.632812 C 321.636719 311.089844 322.683594 311.738281 324.039062 311.703125 C 324.550781 311.695312 325.070312 311.6875 325.582031 311.679688 C 326.097656 311.644531 326.601562 311.601562 327.09375 311.546875 C 328.085938 311.460938 329.019531 311.28125 329.832031 311.046875 C 330.242188 310.9375 330.621094 310.808594 330.957031 310.667969 C 331.296875 310.515625 331.589844 310.34375 331.835938 310.164062 C 332.335938 309.796875 332.636719 309.382812 332.699219 308.890625 C 333.949219 308.714844 334.78125 308.5625 335.628906 308.371094 C 335.777344 308.335938 336.136719 307.789062 336.074219 307.796875 C 335.300781 307.878906 334.300781 307.796875 333.675781 308.042969 Z M 333.675781 308.042969 " fill-opacity="1" fill-rule="nonzero"/><path fill="#8338ec" d="M 308.722656 307.226562 C 310.71875 308.273438 312.039062 308.96875 313.289062 309.628906 C 313.914062 308.96875 314.433594 308.425781 315.039062 307.78125 C 316.730469 308.238281 317.769531 308.519531 319.339844 308.941406 C 319.667969 308.355469 319.863281 308.019531 320.117188 307.578125 C 316.359375 307.464844 313.0625 307.359375 308.722656 307.226562 Z M 308.722656 307.226562 " fill-opacity="1" fill-rule="nonzero"/><path fill="#8338ec" d="M 247.566406 309.304688 C 251.464844 309.363281 255.222656 309.679688 258.257812 308.292969 C 253.53125 307.914062 249.34375 308.308594 247.566406 309.304688 Z M 247.566406 309.304688 " fill-opacity="1" fill-rule="nonzero"/><path fill="#8338ec" d="M 277.003906 309.261719 C 276.351562 309.890625 275.886719 310.339844 275.414062 310.789062 L 275.929688 311.273438 L 281.929688 310.640625 L 281.800781 310.15625 C 280.226562 309.859375 278.648438 309.574219 277.003906 309.261719 Z M 277.003906 309.261719 " fill-opacity="1" fill-rule="nonzero"/><path fill="#8338ec" d="M 285.863281 308.8125 L 287.625 310.550781 L 288.898438 310.5 C 289.324219 310.175781 289.753906 309.855469 290.054688 309.621094 C 288.75 309.226562 287.773438 308.933594 286.804688 308.644531 L 285.863281 308.808594 Z M 285.863281 308.8125 " fill-opacity="1" fill-rule="nonzero"/><path fill="#8338ec" d="M 343.082031 92.550781 L 340.40625 92.425781 C 339.824219 92.398438 339.234375 92.375 338.652344 92.371094 C 333.5625 92.304688 328.476562 92.425781 323.390625 92.460938 C 320.566406 92.480469 317.742188 92.511719 314.910156 92.480469 C 310.867188 92.441406 306.820312 92.355469 302.773438 92.265625 C 299.75 92.195312 296.695312 91.667969 293.714844 92.082031 C 289.015625 92.734375 284.386719 91.6875 279.730469 91.921875 C 277.269531 92.039062 274.8125 92.074219 272.34375 92.117188 C 269.445312 92.164062 266.535156 92.066406 263.632812 92.242188 C 261.160156 92.390625 258.695312 92.777344 256.234375 93.175781 C 255.851562 93.242188 255.527344 93.941406 255.019531 94.527344 C 258.113281 94.792969 260.632812 95.089844 263.171875 95.199219 C 265.929688 95.320312 268.699219 95.328125 271.460938 95.257812 C 274.199219 95.1875 276.941406 94.949219 279.679688 94.808594 C 281.570312 94.714844 283.460938 94.695312 285.347656 94.589844 C 286.023438 94.554688 286.707031 94.21875 287.371094 94.265625 C 289.910156 94.429688 292.429688 94.792969 294.96875 94.882812 C 299.84375 95.066406 304.726562 95.125 309.601562 95.234375 L 326.660156 95.628906 L 335.722656 95.734375 C 337.015625 95.753906 338.3125 95.910156 339.605469 95.917969 C 341.066406 95.925781 343.148438 95.902344 345.164062 95.804688 C 345.695312 95.785156 346.253906 95.742188 346.828125 95.699219 C 346.988281 97.078125 347.199219 98.609375 347.230469 100.273438 L 347.269531 103.132812 L 347.269531 105.703125 C 347.269531 107.417969 347.25 109.132812 347.207031 110.847656 C 347.128906 114.070312 346.871094 117.289062 346.785156 120.511719 C 346.714844 123.289062 346.785156 126.0625 346.792969 128.839844 C 346.808594 130.953125 346.917969 133.066406 346.835938 135.175781 C 346.714844 138.28125 346.371094 141.378906 346.289062 144.484375 C 346.210938 147.652344 346.46875 150.835938 346.328125 153.996094 C 346.300781 154.578125 346.253906 155.164062 346.203125 155.738281 L 346.132812 156.625 L 346.078125 157.578125 C 346.011719 158.851562 346.035156 160.042969 346.300781 161.617188 C 345.90625 161.730469 345.515625 161.871094 345.113281 162.0625 C 345.347656 162.664062 345.613281 163.207031 346.117188 163.605469 C 346.617188 164.007812 347.375 164.253906 348.421875 164.273438 L 349.035156 164.273438 C 349.140625 161.949219 349.222656 159.503906 349.292969 156.988281 L 349.484375 152.578125 C 349.554688 150.8125 349.527344 149.058594 349.546875 147.292969 L 349.574219 143.753906 C 349.574219 140.859375 349.484375 137.957031 349.574219 135.0625 C 349.722656 130.066406 349.984375 125.074219 350.171875 120.078125 C 350.214844 119.050781 350.191406 118.027344 350.152344 117 C 350.074219 115.0625 349.882812 113.121094 349.882812 111.183594 C 349.882812 108.5 350.058594 105.808594 350.039062 103.125 C 350.039062 102.753906 350.011719 102.378906 349.96875 102.015625 L 349.90625 101.460938 C 349.890625 101.410156 349.882812 101.152344 349.871094 100.996094 L 349.835938 100.460938 C 349.738281 99.042969 349.644531 97.695312 349.652344 96.304688 L 349.707031 92.863281 C 347.503906 92.761719 345.296875 92.65625 343.089844 92.550781 Z M 343.082031 92.550781 " fill-opacity="1" fill-rule="nonzero"/><path fill="#8338ec" d="M 183.789062 160.164062 L 183.75 161.097656 C 183.683594 162.277344 183.609375 163.578125 183.558594 164.957031 C 185.636719 165.089844 188.132812 165.136719 190.484375 164.878906 C 192.707031 164.640625 194.960938 164.695312 197.195312 164.84375 C 199.300781 164.984375 201.339844 163.699219 203.496094 164.757812 C 205.15625 165.574219 206.855469 165.378906 208.660156 164.976562 C 211.007812 164.457031 213.488281 164.851562 215.902344 164.730469 C 218.839844 164.582031 221.777344 164.359375 224.707031 164.050781 C 225.121094 164.007812 225.484375 163.285156 225.871094 162.882812 L 225.304688 162.75 C 224.691406 162.566406 224.09375 162.328125 223.476562 162.207031 C 222.832031 162.074219 222.164062 161.976562 221.511719 161.984375 C 219.429688 161.996094 217.351562 162.109375 215.269531 162.089844 C 212.636719 162.0625 210.003906 161.90625 207.367188 161.878906 C 205.890625 161.863281 204.425781 162.066406 202.949219 162.0625 C 200.941406 162.046875 198.929688 161.855469 196.929688 161.871094 C 195.03125 161.890625 193.132812 162.144531 191.230469 162.1875 L 187.585938 162.265625 L 186.066406 162.265625 C 186.066406 162.265625 186.066406 161.261719 186.066406 161.261719 L 186.066406 160.769531 C 186.066406 160.769531 186.066406 160.515625 186.066406 160.515625 L 186.054688 159.871094 C 186.019531 158.324219 186.054688 156.769531 186.058594 155.226562 C 186.058594 154.671875 186.277344 154.074219 186.089844 153.574219 C 185.949219 153.1875 185.320312 152.929688 184.914062 152.605469 C 184.535156 152.949219 183.859375 153.273438 183.824219 153.636719 C 183.699219 154.8125 183.8125 155.992188 183.824219 157.171875 C 183.832031 157.839844 183.824219 158.5 183.8125 159.167969 L 183.785156 160.164062 Z M 183.789062 160.164062 " fill-opacity="1" fill-rule="nonzero"/><path fill="#8338ec" d="M 252.921875 163.945312 C 255.21875 164.070312 257.507812 164.195312 259.621094 162.902344 L 259.734375 162.152344 C 258.976562 161.824219 258.21875 161.253906 257.453125 161.210938 C 253.074219 160.949219 248.691406 160.726562 244.3125 160.671875 C 241.644531 160.636719 238.976562 160.867188 236.3125 161.085938 C 233.945312 161.28125 231.578125 161.570312 229.230469 161.941406 C 228.808594 162.003906 228.457031 162.6875 228.070312 163.085938 C 228.519531 163.570312 228.957031 164.429688 229.425781 164.464844 C 231.21875 164.597656 233.023438 164.492188 234.824219 164.429688 L 243.457031 164.089844 C 245.191406 164.015625 246.925781 163.859375 248.664062 163.824219 C 250.082031 163.796875 251.507812 163.859375 252.925781 163.945312 Z M 252.921875 163.945312 " fill-opacity="1" fill-rule="nonzero"/><path fill="#8338ec" d="M 294.027344 161.605469 C 292.605469 161.316406 291.167969 161.195312 289.726562 161.070312 C 287.71875 160.894531 285.695312 162.019531 283.699219 160.832031 C 283.480469 160.707031 283.183594 160.78125 282.925781 160.78125 C 279.433594 160.824219 275.933594 160.816406 272.449219 160.992188 C 271.953125 161.019531 271.488281 161.933594 271.011719 162.433594 C 271.332031 162.796875 271.621094 163.234375 271.988281 163.515625 C 274.144531 165.214844 276.460938 163.738281 278.71875 164.070312 C 281.226562 164.4375 283.859375 163.320312 286.347656 163.738281 C 289.191406 164.226562 291.867188 163.832031 295.109375 163.179688 C 294.59375 162.40625 294.347656 161.660156 294.027344 161.597656 Z M 294.027344 161.605469 " fill-opacity="1" fill-rule="nonzero"/><path fill="#8338ec" d="M 342.535156 161.851562 C 341.988281 161.808594 341.445312 161.773438 340.90625 161.730469 C 340.429688 161.703125 339.957031 161.683594 339.480469 161.660156 L 336.621094 161.597656 C 333.632812 161.535156 330.648438 161.472656 327.664062 161.464844 C 326.566406 161.464844 325.449219 161.5 324.375 161.746094 C 324.003906 161.828125 323.734375 162.582031 323.417969 163.03125 C 323.742188 163.390625 324.023438 163.949219 324.390625 164.0625 C 325.289062 164.332031 326.230469 164.511719 327.15625 164.507812 L 334.289062 164.40625 L 341.566406 164.265625 C 341.679688 164.40625 341.789062 164.546875 341.910156 164.6875 C 342.84375 164.246094 343.632812 163.808594 344.269531 163.382812 C 343.570312 162.847656 342.902344 161.886719 342.523438 161.851562 Z M 342.535156 161.851562 " fill-opacity="1" fill-rule="nonzero"/><path fill="#8338ec" d="M 310.765625 163.113281 C 310.851562 163.289062 311.019531 163.65625 311.378906 164.421875 C 311.398438 162.292969 310.726562 161.042969 309.785156 161.042969 C 307.578125 161.042969 305.371094 161.125 303.164062 161.132812 C 302.316406 161.132812 301.445312 161.132812 300.609375 160.945312 C 298.316406 160.4375 297.199219 161.007812 296.652344 163.390625 C 300.691406 165.679688 304.859375 163.003906 308.898438 163.949219 C 309.433594 164.078125 310.078125 163.445312 310.765625 163.113281 Z M 310.765625 163.113281 " fill-opacity="1" fill-rule="nonzero"/><path fill="#8338ec" d="M 208.125 95.9375 C 209.890625 95.875 211.667969 96.21875 213.429688 96.121094 C 213.984375 96.09375 214.519531 95.222656 215.066406 94.730469 C 214.660156 94.386719 214.28125 93.878906 213.832031 93.734375 C 213.210938 93.527344 212.523438 93.507812 211.878906 93.578125 C 210.492188 93.734375 209.125 94.175781 207.746094 94.183594 C 205.441406 94.203125 203.136719 93.992188 200.839844 93.859375 C 198.777344 93.738281 197.980469 94.308594 197.765625 96.207031 C 199.09375 96.316406 200.417969 96.570312 201.742188 96.515625 C 203.867188 96.417969 205.996094 96.015625 208.125 95.9375 Z M 208.125 95.9375 " fill-opacity="1" fill-rule="nonzero"/><path fill="#8338ec" d="M 184.273438 119.445312 C 183.742188 124.03125 183.890625 128.621094 184.226562 133.207031 C 184.269531 133.769531 184.550781 134.324219 184.71875 134.878906 L 185.390625 134.71875 C 186.664062 132.078125 186.074219 120.625 184.273438 119.445312 Z M 184.273438 119.445312 " fill-opacity="1" fill-rule="nonzero"/><path fill="#8338ec" d="M 197.40625 94.300781 C 194.800781 94.246094 192.46875 94.1875 190.140625 94.140625 L 189.894531 94.976562 C 190.632812 95.480469 191.363281 96.410156 192.109375 96.417969 C 193.851562 96.429688 195.929688 97.527344 197.414062 94.308594 Z M 197.40625 94.300781 " fill-opacity="1" fill-rule="nonzero"/><path fill="#8338ec" d="M 267.265625 162.785156 C 266.972656 162.257812 266.71875 161.351562 266.367188 161.28125 C 265.199219 161.054688 263.984375 160.949219 262.824219 161.148438 C 262.039062 161.28125 261.316406 161.992188 260.5625 162.449219 L 260.765625 163.359375 L 266.949219 163.621094 L 267.265625 162.792969 Z M 267.265625 162.785156 " fill-opacity="1" fill-rule="nonzero"/><path fill="#8338ec" d="M 240.859375 95.558594 C 241.980469 95.699219 243.316406 95.355469 243.992188 93.457031 C 241.871094 93.277344 239.921875 93.113281 237.871094 92.9375 C 238.011719 96.136719 239.777344 95.425781 240.851562 95.558594 Z M 240.859375 95.558594 " fill-opacity="1" fill-rule="nonzero"/><path fill="#8338ec" d="M 219.507812 95.664062 C 219.921875 95.617188 220.714844 95.644531 221.445312 95.363281 C 221.769531 95.242188 222.015625 94.535156 222.140625 94.027344 C 222.175781 93.878906 221.664062 93.277344 221.433594 93.304688 C 219.84375 93.480469 218.257812 93.746094 216.683594 94.0625 C 216.507812 94.097656 216.347656 94.625 216.269531 94.953125 C 216.246094 95.054688 216.523438 95.382812 216.683594 95.410156 C 217.5 95.523438 218.328125 95.574219 219.507812 95.671875 Z M 219.507812 95.664062 " fill-opacity="1" fill-rule="nonzero"/><path fill="#8338ec" d="M 228.480469 95.636719 C 229.351562 95.609375 230.199219 95.488281 229.960938 93.835938 C 228.589844 93.507812 227.234375 93.191406 225.796875 92.847656 C 225.9375 95.644531 226 95.714844 228.480469 95.644531 Z M 228.480469 95.636719 " fill-opacity="1" fill-rule="nonzero"/><path fill="#8338ec" d="M 250.714844 95.609375 L 251.179688 94.984375 C 250.902344 94.300781 250.6875 93.09375 250.34375 93.035156 C 249.371094 92.882812 248.324219 93.078125 247.378906 93.417969 C 247.117188 93.507812 247.066406 94.605469 246.925781 95.234375 L 247.347656 95.398438 L 248.042969 94.132812 L 248.03125 94.777344 L 250.722656 95.609375 Z M 250.714844 95.609375 " fill-opacity="1" fill-rule="nonzero"/><path fill="#8338ec" d="M 185.941406 138.042969 C 185.714844 137.578125 185.28125 137.183594 184.9375 136.761719 C 184.597656 137.261719 184.070312 137.738281 183.980469 138.265625 C 183.867188 138.90625 184.023438 139.601562 184.246094 140.234375 C 184.359375 140.542969 184.894531 140.753906 185.238281 141.007812 C 185.496094 140.738281 185.863281 140.5 185.988281 140.199219 C 186.125 139.859375 186.039062 139.476562 186.054688 139.109375 L 185.953125 139.109375 C 185.960938 138.75 186.109375 138.34375 185.953125 138.035156 Z M 185.941406 138.042969 " fill-opacity="1" fill-rule="nonzero"/><path fill="#8338ec" d="M 251.886719 92.757812 L 251.464844 92.996094 L 251.867188 95.558594 C 252.34375 95.222656 252.820312 94.882812 253.503906 94.40625 C 252.78125 93.667969 252.335938 93.210938 251.886719 92.757812 Z M 251.886719 92.757812 " fill-opacity="1" fill-rule="nonzero"/><path fill="#8338ec" d="M 180.910156 96.488281 C 181.480469 95.988281 182.007812 95.523438 182.527344 95.066406 L 182.265625 94.511719 C 180.363281 94.175781 180.234375 94.316406 180.902344 96.488281 Z M 180.910156 96.488281 " fill-opacity="1" fill-rule="nonzero"/><path fill="#8338ec" d="M 319.589844 162.875 C 319.597656 163.382812 320.074219 163.886719 320.347656 164.394531 L 320.835938 164.054688 L 320.664062 161.140625 L 320.179688 160.992188 C 319.964844 161.617188 319.582031 162.242188 319.589844 162.867188 Z M 319.589844 162.875 " fill-opacity="1" fill-rule="nonzero"/><path fill="#8338ec" d="M 183.804688 95.609375 L 184.894531 95.726562 C 184.992188 95.195312 185.125 94.652344 185.132812 94.117188 C 185.132812 94.054688 184.480469 93.992188 184.128906 93.929688 Z M 183.804688 95.609375 " fill-opacity="1" fill-rule="nonzero"/><path fill="#8338ec" d="M 292.042969 151.523438 L 290.34375 150.230469 L 287.449219 148.050781 C 285.980469 146.941406 284.472656 145.890625 283.046875 144.730469 C 280.945312 143.03125 278.941406 141.210938 276.828125 139.523438 C 276.425781 139.199219 276.011719 138.890625 275.597656 138.582031 C 279.871094 138.707031 283.542969 138.835938 287.21875 138.878906 C 291.925781 138.925781 296.640625 138.898438 301.339844 138.820312 C 306.003906 138.742188 310.660156 138.554688 315.328125 138.429688 L 316.828125 138.40625 L 321.3125 130.335938 C 321.859375 129.324219 322.238281 128.21875 322.828125 127.242188 C 325.070312 123.546875 327.425781 119.921875 329.628906 116.207031 L 332.867188 110.707031 L 326.3125 110.691406 L 325.054688 110.691406 C 324.613281 110.691406 324.164062 110.707031 323.722656 110.746094 C 322.828125 110.832031 321.953125 111 321.085938 111.246094 C 319.367188 111.746094 317.75 112.582031 316.339844 113.683594 C 315.636719 114.226562 314.976562 114.894531 314.414062 115.476562 L 312.65625 117.273438 L 309.691406 120.308594 L 285.660156 120.253906 L 284.746094 120.253906 C 285.558594 119.710938 286.375 119.15625 287.183594 118.601562 C 288.019531 118.019531 288.820312 117.386719 289.640625 116.777344 L 291.285156 115.546875 C 292.621094 114.527344 293.921875 113.460938 295.289062 112.488281 C 297.652344 110.8125 300.058594 109.195312 302.433594 107.539062 C 302.679688 107.367188 302.917969 107.191406 303.152344 107.011719 L 304.042969 106.292969 C 304.867188 105.621094 305.695312 104.945312 306.515625 104.269531 C 307.304688 103.617188 308.0625 103.007812 308.882812 102.375 L 309.847656 101.644531 C 307.621094 101.621094 305.378906 101.53125 302.941406 101.542969 C 302.554688 101.542969 302.160156 101.566406 301.78125 101.585938 C 301.59375 101.601562 301.402344 101.613281 301.210938 101.628906 C 301.042969 101.644531 300.972656 101.664062 300.855469 101.679688 C 300.410156 101.75 299.96875 101.820312 299.527344 101.832031 C 297.769531 101.875 295.984375 101.875 294.242188 102.203125 C 291.25 102.789062 288.328125 103.882812 285.660156 105.191406 C 284.15625 105.84375 282.660156 106.496094 281.148438 107.121094 C 278.976562 108.007812 276.800781 108.878906 274.621094 109.734375 C 272.992188 110.375 271.222656 110.746094 269.746094 111.675781 C 267.414062 113.136719 264.671875 113.542969 262.25 114.738281 C 260.972656 115.371094 259.671875 115.945312 258.363281 116.53125 C 256.828125 117.21875 255.253906 117.816406 253.75 118.582031 C 252.597656 119.164062 251.5 119.867188 250.417969 120.582031 C 249.300781 120.640625 248.183594 120.6875 247.0625 120.695312 C 241.222656 120.746094 235.378906 120.738281 229.53125 120.683594 L 221.292969 120.542969 C 218.523438 120.449219 215.699219 120.632812 212.9375 121.144531 C 210.5625 121.617188 208.226562 122.3125 206.003906 123.335938 C 204.894531 123.84375 203.828125 124.449219 202.792969 125.113281 C 201.777344 125.804688 200.804688 126.589844 199.921875 127.460938 L 198.023438 129.378906 L 197.074219 130.339844 C 196.78125 130.636719 196.394531 131.03125 196.09375 131.492188 C 195.957031 131.738281 195.796875 131.964844 195.71875 132.257812 L 195.585938 132.675781 C 195.566406 132.820312 195.550781 132.96875 195.535156 133.117188 C 195.488281 133.410156 195.558594 133.707031 195.59375 134 C 195.664062 134.28125 195.753906 134.5625 195.875 134.816406 C 196.394531 135.828125 197.230469 136.515625 198.085938 137.023438 C 199.371094 137.753906 200.785156 138.140625 202.195312 138.273438 L 203.25 138.335938 L 204.242188 138.363281 L 206.222656 138.421875 C 208.863281 138.5 211.503906 138.566406 214.152344 138.589844 C 219.558594 138.644531 224.964844 138.464844 230.363281 138.5625 C 234.617188 138.636719 238.871094 138.96875 243.070312 138.476562 C 244.292969 139.011719 245.507812 139.539062 246.730469 140.070312 L 260.324219 146.027344 L 267.574219 149.128906 C 268.609375 149.578125 269.613281 150.105469 270.644531 150.546875 C 271.929688 151.09375 273.210938 151.601562 274.539062 152.085938 C 275.914062 152.582031 277.363281 152.859375 278.753906 153.25 C 281.667969 154.066406 284.667969 154.59375 287.6875 154.761719 L 288.511719 154.804688 L 289.390625 154.839844 L 291.636719 154.894531 L 296.503906 155.023438 L 294.265625 153.246094 L 292.015625 151.503906 Z M 258.722656 118.660156 C 260.171875 118 261.570312 117.226562 262.996094 116.523438 C 263.976562 116.039062 264.984375 115.59375 265.960938 115.105469 C 266.308594 114.929688 266.585938 114.570312 266.949219 114.441406 C 268.339844 113.964844 269.789062 113.621094 271.164062 113.101562 C 273.8125 112.109375 276.433594 111.035156 279.070312 110.003906 L 283.671875 108.199219 C 285.203125 107.601562 286.761719 106.980469 288.230469 106.355469 C 289.808594 105.730469 291.425781 105.167969 293.085938 104.785156 C 293.792969 104.613281 294.53125 104.550781 295.246094 104.417969 C 296.132812 104.257812 297.011719 104.09375 297.902344 103.925781 C 298.816406 103.75 299.730469 103.457031 300.671875 103.421875 L 301.773438 103.386719 L 302.75 103.386719 C 303.398438 103.386719 304.03125 103.386719 304.589844 103.414062 L 304.339844 103.589844 C 303.804688 103.960938 303.25 104.320312 302.792969 104.59375 L 302.46875 104.789062 L 302.316406 104.882812 L 302.027344 105.078125 L 300.875 105.878906 C 299.570312 106.8125 298.316406 107.824219 297.046875 108.808594 C 296.078125 109.5625 295.148438 110.363281 294.144531 111.058594 C 292.667969 112.082031 291.097656 112.988281 289.632812 114.042969 C 288.144531 115.117188 286.789062 116.375 285.273438 117.40625 C 284.027344 118.257812 282.625 118.882812 281.792969 120.246094 L 270.238281 120.273438 C 268.03125 120.273438 265.820312 120.183594 263.613281 120.195312 C 260.894531 120.210938 258.167969 120.246094 255.449219 120.332031 C 255.167969 120.335938 254.886719 120.359375 254.605469 120.367188 C 255.996094 119.847656 257.375 119.269531 258.722656 118.644531 Z M 290.042969 152.792969 C 290.042969 152.792969 290.019531 152.824219 289.992188 152.824219 C 289.964844 152.824219 289.949219 152.816406 289.972656 152.824219 C 289.929688 152.824219 289.894531 152.835938 289.859375 152.851562 C 289.78125 152.878906 289.691406 152.921875 289.523438 152.957031 C 289.4375 152.976562 289.339844 152.992188 289.234375 153.003906 C 289.234375 153.003906 289.09375 153.003906 289.003906 153.003906 L 288.699219 153.003906 C 288.496094 153.003906 288.292969 153.003906 288.089844 153.003906 C 285.828125 152.941406 283.601562 152.519531 281.40625 152.023438 C 280.199219 151.746094 278.929688 151.648438 277.746094 151.226562 C 276.566406 150.8125 275.472656 150.265625 274.320312 149.695312 C 273.167969 149.132812 272.007812 148.578125 270.828125 148.074219 C 266.761719 146.332031 262.636719 144.695312 258.539062 143.015625 C 256.265625 142.082031 253.988281 141.152344 251.726562 140.183594 L 242.023438 135.976562 C 240.816406 135.449219 239.636719 134.84375 238.441406 134.28125 C 237.84375 134 237.246094 133.726562 236.636719 133.480469 C 236.332031 133.355469 236.023438 133.242188 235.722656 133.128906 L 235.257812 132.96875 L 234.886719 132.851562 C 234.613281 132.773438 234.410156 132.597656 234.296875 132.335938 C 234.175781 132.078125 234.203125 131.726562 234.332031 131.453125 C 234.464844 131.171875 234.6875 130.960938 234.964844 130.875 C 235.035156 130.863281 235.109375 130.847656 235.179688 130.832031 C 235.257812 130.832031 235.34375 130.832031 235.421875 130.832031 L 236.171875 130.882812 C 238.195312 131.03125 240.210938 131.210938 242.242188 131.175781 C 244.382812 131.140625 246.527344 131.171875 248.667969 131.183594 C 251.199219 131.207031 253.726562 131.324219 256.25 131.269531 C 258.398438 131.21875 260.550781 131.007812 262.691406 130.792969 C 263.03125 130.757812 263.316406 130.292969 263.761719 129.914062 C 261.070312 129.675781 258.878906 129.429688 256.679688 129.308594 C 254.277344 129.175781 251.875 129.121094 249.464844 129.113281 C 247.074219 129.113281 244.695312 129.210938 242.304688 129.253906 C 240.660156 129.265625 239.015625 129.273438 237.375 129.289062 C 236.78125 129.300781 236.191406 129.503906 235.609375 129.464844 C 235.011719 129.40625 234.203125 129.535156 233.65625 130.011719 C 233.101562 130.476562 232.734375 131.15625 232.679688 131.894531 C 232.617188 132.617188 232.863281 133.433594 233.417969 133.988281 C 233.566406 134.113281 233.707031 134.253906 233.867188 134.351562 C 234.015625 134.445312 234.21875 134.5625 234.339844 134.613281 L 235.089844 134.964844 C 236.382812 135.546875 237.683594 136.117188 238.988281 136.683594 C 235.320312 136.59375 231.65625 136.523438 227.980469 136.460938 C 224.980469 136.410156 221.980469 136.433594 218.980469 136.417969 L 212.953125 136.398438 L 205.546875 136.417969 C 204.320312 136.410156 203.039062 136.46875 201.964844 136.339844 C 200.855469 136.214844 199.765625 135.882812 198.875 135.351562 C 198.101562 134.894531 197.546875 134.210938 197.425781 133.617188 C 197.363281 133.3125 197.441406 133.03125 197.558594 132.738281 C 197.671875 132.597656 197.707031 132.433594 197.863281 132.292969 L 198.050781 132.078125 C 198.121094 132 198.234375 131.894531 198.324219 131.808594 L 200.617188 129.589844 C 201.402344 128.824219 202.085938 128.171875 202.890625 127.582031 C 206.109375 125.226562 210.085938 123.886719 214.105469 123.226562 C 215.757812 122.949219 217.433594 122.761719 219.113281 122.664062 C 220.679688 122.59375 222.375 122.570312 224.011719 122.523438 C 225.660156 122.488281 227.3125 122.453125 228.964844 122.453125 C 233.542969 122.453125 238.117188 122.570312 242.699219 122.558594 C 245.226562 122.550781 247.75 122.285156 250.273438 122.296875 C 255.292969 122.324219 260.3125 122.542969 265.328125 122.535156 C 273.988281 122.523438 282.652344 122.382812 291.320312 122.304688 L 305.757812 122.191406 L 310.515625 122.191406 C 310.515625 122.191406 316.484375 116.050781 316.484375 116.050781 C 318.277344 114.273438 320.636719 113.085938 323.132812 112.699219 C 323.769531 112.601562 324.410156 112.558594 325.0625 112.566406 L 327.15625 112.609375 L 328.203125 112.628906 L 328.730469 112.644531 C 328.84375 112.644531 328.855469 112.644531 328.878906 112.644531 L 328.941406 112.644531 C 328.941406 112.644531 329.390625 112.6875 329.390625 112.6875 L 329.179688 113.023438 L 328.589844 114.058594 C 328.015625 115.082031 327.460938 116.117188 326.933594 117.15625 C 325.210938 120.582031 323.265625 123.871094 321.289062 127.132812 L 318.328125 132.011719 L 316.871094 134.464844 L 316.15625 135.703125 L 315.839844 136.257812 L 315.734375 136.46875 L 315.578125 136.46875 C 315.578125 136.46875 315.503906 136.480469 315.503906 136.480469 L 315.332031 136.480469 C 311.144531 136.59375 306.953125 136.652344 302.765625 136.707031 C 297.820312 136.769531 292.859375 136.742188 287.925781 136.890625 C 283.71875 137.015625 279.53125 137.304688 275.359375 137.597656 C 275.097656 137.621094 274.851562 137.703125 274.609375 137.832031 C 273.132812 136.742188 271.648438 135.675781 270.230469 134.523438 C 268.367188 132.996094 266.710938 131.210938 264.371094 130.375 C 263.648438 130.847656 263.347656 131.445312 264.105469 132.097656 C 266.023438 133.75 267.976562 135.351562 269.9375 136.945312 C 271.121094 137.914062 272.351562 138.828125 273.566406 139.769531 L 276.003906 141.652344 C 278.015625 143.183594 280.050781 144.667969 282.019531 146.238281 L 287.089844 150.351562 L 289.621094 152.414062 C 290.226562 152.898438 290 152.746094 290.050781 152.808594 Z M 290.042969 152.792969 " fill-opacity="1" fill-rule="nonzero"/><path fill="#8338ec" d="M 55.730469 284.042969 C 56.054688 284.140625 56.386719 284.210938 56.722656 284.253906 C 57.058594 284.300781 57.390625 284.378906 57.726562 284.394531 L 58.738281 284.449219 C 59.070312 284.464844 59.34375 284.449219 59.652344 284.457031 C 62.589844 284.457031 65.527344 284.367188 68.460938 284.457031 C 70.992188 284.527344 73.527344 284.632812 76.058594 284.738281 L 79.855469 284.898438 L 81.753906 284.976562 L 82.238281 284.992188 L 82.800781 284.992188 C 83.171875 284.96875 83.550781 284.992188 83.925781 284.925781 C 85.15625 284.828125 86.355469 284.441406 87.480469 283.957031 C 89.585938 282.945312 91.363281 281.394531 92.734375 279.574219 C 93.703125 278.332031 94.5 276.933594 95.019531 275.421875 C 95.136719 275.042969 95.242188 274.65625 95.347656 274.269531 C 95.453125 273.882812 95.503906 273.492188 95.574219 273.097656 C 95.65625 272.703125 95.65625 272.304688 95.683594 271.902344 L 95.714844 271.3125 L 95.714844 270.800781 C 95.699219 269.296875 95.304688 267.792969 95.328125 266.296875 C 95.371094 263.3125 95.691406 260.324219 95.679688 257.339844 C 95.652344 252.183594 95.445312 247.03125 95.328125 241.875 C 95.265625 239.011719 95.179688 236.152344 95.164062 233.285156 L 95.164062 232.519531 C 95.164062 232.519531 95.164062 232.132812 95.164062 232.132812 L 95.144531 231.695312 L 95.09375 230.832031 L 94.96875 229.976562 C 94.90625 229.398438 94.710938 228.851562 94.582031 228.289062 C 94.371094 227.75 94.222656 227.1875 93.949219 226.671875 C 93.488281 225.613281 92.828125 224.648438 92.101562 223.75 C 91.359375 222.867188 90.492188 222.085938 89.550781 221.417969 C 88.140625 220.429688 86.550781 219.613281 84.839844 219.199219 C 84.410156 219.113281 83.972656 219.035156 83.539062 218.964844 C 83.101562 218.9375 82.660156 218.917969 82.226562 218.902344 C 81.453125 218.917969 80.699219 218.980469 79.941406 219.101562 C 75.191406 219.835938 70.484375 218.867188 65.757812 219.175781 C 64.515625 219.261719 63.261719 219.316406 62.019531 219.367188 L 60.152344 219.4375 C 59.519531 219.464844 58.9375 219.464844 58.226562 219.527344 C 55.03125 219.761719 51.859375 221.207031 49.867188 223.679688 C 48.125 225.753906 47.464844 228.507812 47.632812 230.953125 C 47.675781 231.34375 48.371094 231.703125 48.9375 232.132812 C 49.042969 230.777344 49.429688 229.601562 49.945312 228.597656 C 50.457031 227.585938 51.089844 226.738281 51.796875 225.964844 C 53.351562 224.292969 55.417969 223.113281 57.691406 222.730469 C 58.71875 222.550781 60.234375 222.5 61.597656 222.382812 C 62.984375 222.277344 64.375 222.171875 65.757812 222.066406 C 67.667969 221.9375 69.585938 221.890625 71.496094 221.75 C 72.179688 221.699219 72.867188 221.355469 73.542969 221.390625 C 76.113281 221.507812 78.675781 221.824219 81.25 221.882812 L 82.175781 221.902344 L 82.996094 221.960938 C 83.273438 221.960938 83.539062 222.035156 83.8125 222.070312 C 84.085938 222.105469 84.355469 222.164062 84.613281 222.246094 C 85.675781 222.507812 86.691406 222.941406 87.605469 223.546875 C 88.527344 224.136719 89.347656 224.867188 90.042969 225.710938 C 90.734375 226.5625 91.273438 227.523438 91.652344 228.535156 C 92.101562 229.730469 92.304688 230.972656 92.300781 232.273438 L 92.269531 236.59375 L 92.230469 245.242188 L 92.277344 254.429688 C 92.277344 255.746094 92.144531 257.058594 92.160156 258.371094 C 92.171875 259.988281 92.234375 261.609375 92.363281 263.226562 C 92.496094 264.890625 92.863281 266.542969 92.902344 268.207031 L 92.945312 270.8125 C 92.960938 271.257812 92.945312 271.664062 92.917969 272.070312 C 92.917969 272.480469 92.832031 272.878906 92.777344 273.28125 C 92.503906 274.882812 91.816406 276.40625 90.824219 277.675781 C 88.957031 280.101562 86.011719 281.476562 83.117188 281.617188 L 74.792969 281.675781 C 72.648438 281.6875 70.507812 281.800781 68.363281 281.71875 C 65.214844 281.597656 62.078125 281.253906 58.929688 281.167969 C 57.542969 281.132812 56.195312 280.902344 54.925781 280.382812 C 53.660156 279.863281 52.488281 279.054688 51.617188 277.992188 C 50.851562 277.058594 50.386719 275.957031 49.984375 274.875 C 49.59375 273.785156 49.226562 272.730469 48.65625 271.515625 C 47.421875 271.222656 46.4375 271.304688 46.417969 272.597656 C 46.492188 275.800781 47.976562 279.011719 50.433594 281.246094 C 51.902344 282.628906 53.785156 283.53125 55.738281 284.035156 Z M 55.730469 284.042969 " fill-opacity="1" fill-rule="nonzero"/><path fill="#8338ec" d="M 63.929688 265.265625 L 67.410156 268.734375 L 85.085938 251.066406 L 67.410156 233.390625 L 63.929688 236.867188 L 75.671875 248.605469 L 43.824219 248.605469 L 43.824219 253.523438 L 75.671875 253.523438 Z M 63.929688 265.265625 " fill-opacity="1" fill-rule="nonzero"/><path stroke-linecap="butt" transform="matrix(0.790636, 0, 0, 0.790636, 116.53247, 199.079284)" fill="none" stroke-linejoin="miter" d="M 48.83174 31.085039 L 48.83174 41.20841 L 31.248003 41.20841 L 31.248003 91.998186 L 19.24719 91.998186 L 19.24719 41.20841 L 1.668394 41.20841 L 1.668394 31.085039 Z M 57.122134 91.998186 L 57.122134 46.045296 L 68.327504 46.045296 L 68.327504 52.878201 L 69.206938 53.041242 C 70.313642 50.486932 71.776071 48.614429 73.579404 47.418794 C 75.382738 46.223159 77.581323 45.625342 80.160336 45.625342 C 82.773935 45.625342 84.760072 46.07 86.118748 46.959315 L 84.162255 56.919644 L 83.287761 57.082686 C 82.536784 56.781306 81.815451 56.558978 81.118821 56.415699 C 80.427131 56.277361 79.577341 56.208192 78.579332 56.208192 C 75.358035 56.208192 72.897596 57.339599 71.202957 59.607352 C 69.508317 61.870165 68.663468 65.501536 68.663468 70.501463 L 68.663468 91.998186 Z M 104.453462 92.872679 C 101.508841 92.872679 98.95453 92.33415 96.785589 91.25215 C 94.621589 90.165209 92.951653 88.574323 91.785662 86.479492 C 90.619671 84.38466 90.036675 81.859994 90.036675 78.915372 C 90.036675 76.19308 90.619671 73.910504 91.785662 72.062705 C 92.951653 70.214906 94.759927 68.70307 97.200603 67.522257 C 99.646219 66.341444 102.842813 65.432367 106.785444 64.795024 C 109.53738 64.350367 111.627271 63.861243 113.055116 63.332595 C 114.487901 62.808887 115.451326 62.21107 115.95033 61.544083 C 116.454276 60.877097 116.701308 60.027307 116.701308 58.999654 C 116.701308 57.527343 116.187481 56.405818 115.159828 55.625197 C 114.132175 54.849516 112.422714 54.459206 110.036385 54.459206 C 107.482074 54.459206 105.051279 55.027379 102.744001 56.168667 C 100.436722 57.305014 98.440703 58.806969 96.746064 60.66959 L 95.911096 60.66959 L 91.07915 53.377206 C 93.411132 50.793251 96.256941 48.77747 99.621516 47.334803 C 102.981151 45.892137 106.647106 45.170803 110.61938 45.170803 C 116.701308 45.170803 121.103418 46.46031 123.82571 49.044265 C 126.548003 51.628219 127.911619 55.294174 127.911619 60.042129 L 127.911619 80.002313 C 127.911619 82.057619 128.810816 83.085272 130.61909 83.085272 C 131.310779 83.085272 131.992588 82.956816 132.659574 82.709784 L 133.242569 82.877765 L 134.077538 90.916186 C 133.435254 91.3312 132.55088 91.672104 131.409592 91.938899 C 130.273245 92.200752 129.023263 92.33415 127.659647 92.33415 C 124.90771 92.33415 122.763473 91.805501 121.221993 90.748204 C 119.680513 89.695848 118.578751 88.040734 117.911764 85.792743 L 117.037271 85.708752 C 114.784339 90.486351 110.589736 92.872679 104.453462 92.872679 Z M 108.119417 84.251263 C 110.787362 84.251263 112.916778 83.352067 114.512604 81.563555 C 116.113372 79.770103 116.908815 77.280021 116.908815 74.083427 L 116.908815 69.419463 L 116.118312 69.251481 C 115.421682 69.804833 114.512604 70.269253 113.391079 70.644741 C 112.264613 71.02023 110.649024 71.390778 108.53443 71.751445 C 106.034467 72.166459 104.236074 72.882851 103.139252 73.895682 C 102.04243 74.908514 101.494019 76.34624 101.494019 78.208861 C 101.494019 80.180176 102.077014 81.682131 103.243005 82.709784 C 104.408996 83.737437 106.034467 84.251263 108.119417 84.251263 Z M 166.616591 91.998186 L 152.86679 91.998186 L 135.866049 46.045296 L 147.950854 46.045296 L 159.363731 78.791856 L 160.322216 78.791856 L 171.779559 46.045296 L 183.572866 46.045296 Z M 229.822194 71.627929 L 200.282109 71.627929 C 200.613132 75.624906 201.75442 78.534943 203.696091 80.353098 C 205.642704 82.176195 208.295827 83.085272 211.655462 83.085272 C 214.293764 83.085272 216.433061 82.591208 218.068412 81.60308 C 219.708705 80.619893 221.027856 79.12782 222.030805 77.126861 L 222.905299 77.126861 L 230.568231 82.042797 C 229.071217 85.264094 226.808404 87.872752 223.779792 89.873711 C 220.75118 91.87467 216.709736 92.872679 211.655462 92.872679 C 206.902567 92.872679 202.801836 91.973483 199.343388 90.165209 C 195.88494 88.361875 193.216995 85.674167 191.344492 82.102085 C 189.467049 78.534943 188.528328 74.18224 188.528328 69.043974 C 188.528328 63.821718 189.516456 59.419608 191.487771 55.832704 C 193.459086 52.25074 196.127031 49.577854 199.486666 47.814045 C 202.851242 46.050237 206.625891 45.170803 210.820494 45.170803 C 217.322376 45.170803 222.2976 46.890146 225.756048 50.333772 C 229.214496 53.777398 230.943719 58.836613 230.943719 65.501536 C 230.943719 67.917508 230.859729 69.794951 230.696687 71.123984 Z M 219.90633 64.167563 C 219.792696 60.66959 218.982431 58.12022 217.465654 56.524393 C 215.953819 54.923626 213.735471 54.128183 210.820494 54.128183 C 204.985598 54.128183 201.556795 57.472996 200.529141 64.167563 Z M 253.443393 92.872679 C 249.303137 92.872679 246.146068 91.756095 243.962305 89.522926 C 241.783483 87.284816 240.691602 83.890597 240.691602 79.335327 L 240.691602 27.587067 L 252.232936 27.587067 L 252.232936 78.875847 C 252.232936 81.682131 253.403867 83.085272 255.735849 83.085272 C 256.402836 83.085272 257.109347 82.971638 257.860325 82.749309 L 258.44332 82.91729 L 259.485795 91.790679 C 258.843512 92.126643 257.998662 92.388497 256.941366 92.581182 C 255.889009 92.778807 254.723018 92.872679 253.443393 92.872679 Z M 253.443393 92.872679 " stroke="#ffffff" stroke-width="22.399992" stroke-opacity="1" stroke-miterlimit="4"/><g fill="#8338ec" fill-opacity="1"><g transform="translate(116.53247, 271.81784)"><g><path d="M 38.609375 -48.15625 L 38.609375 -40.15625 L 24.703125 -40.15625 L 24.703125 0 L 15.21875 0 L 15.21875 -40.15625 L 1.3125 -40.15625 L 1.3125 -48.15625 Z M 38.609375 -48.15625 "/></g></g></g><g fill="#8338ec" fill-opacity="1"><g transform="translate(156.457175, 271.81784)"><g><path d="M 5.234375 0 L 5.234375 -36.34375 L 14.09375 -36.34375 L 14.09375 -30.9375 L 14.796875 -30.796875 C 15.671875 -32.816406 16.820312 -34.300781 18.25 -35.25 C 19.675781 -36.195312 21.410156 -36.671875 23.453125 -36.671875 C 25.515625 -36.671875 27.085938 -36.316406 28.171875 -35.609375 L 26.625 -27.734375 L 25.921875 -27.609375 C 25.328125 -27.847656 24.753906 -28.019531 24.203125 -28.125 C 23.660156 -28.238281 22.992188 -28.296875 22.203125 -28.296875 C 19.648438 -28.296875 17.703125 -27.398438 16.359375 -25.609375 C 15.023438 -23.816406 14.359375 -20.945312 14.359375 -17 L 14.359375 0 Z M 5.234375 0 "/></g></g></g><g fill="#8338ec" fill-opacity="1"><g transform="translate(184.951298, 271.81784)"><g><path d="M 14.171875 0.6875 C 11.835938 0.6875 9.8125 0.257812 8.09375 -0.59375 C 6.382812 -1.445312 5.066406 -2.703125 4.140625 -4.359375 C 3.222656 -6.023438 2.765625 -8.019531 2.765625 -10.34375 C 2.765625 -12.5 3.222656 -14.304688 4.140625 -15.765625 C 5.066406 -17.222656 6.492188 -18.414062 8.421875 -19.34375 C 10.359375 -20.28125 12.890625 -21.003906 16.015625 -21.515625 C 18.179688 -21.867188 19.832031 -22.253906 20.96875 -22.671875 C 22.101562 -23.085938 22.863281 -23.554688 23.25 -24.078125 C 23.644531 -24.609375 23.84375 -25.28125 23.84375 -26.09375 C 23.84375 -27.257812 23.4375 -28.148438 22.625 -28.765625 C 21.8125 -29.378906 20.460938 -29.6875 18.578125 -29.6875 C 16.554688 -29.6875 14.632812 -29.234375 12.8125 -28.328125 C 10.988281 -27.429688 9.410156 -26.25 8.078125 -24.78125 L 7.40625 -24.78125 L 3.59375 -30.53125 C 5.4375 -32.582031 7.6875 -34.175781 10.34375 -35.3125 C 13 -36.457031 15.898438 -37.03125 19.046875 -37.03125 C 23.847656 -37.03125 27.328125 -36.007812 29.484375 -33.96875 C 31.640625 -31.925781 32.71875 -29.023438 32.71875 -25.265625 L 32.71875 -9.484375 C 32.71875 -7.859375 33.429688 -7.046875 34.859375 -7.046875 C 35.398438 -7.046875 35.9375 -7.144531 36.46875 -7.34375 L 36.9375 -7.21875 L 37.59375 -0.859375 C 37.082031 -0.523438 36.375 -0.253906 35.46875 -0.046875 C 34.570312 0.160156 33.585938 0.265625 32.515625 0.265625 C 30.335938 0.265625 28.640625 -0.148438 27.421875 -0.984375 C 26.203125 -1.816406 25.332031 -3.125 24.8125 -4.90625 L 24.109375 -4.96875 C 22.335938 -1.195312 19.023438 0.6875 14.171875 0.6875 Z M 17.0625 -6.125 C 19.175781 -6.125 20.863281 -6.832031 22.125 -8.25 C 23.382812 -9.664062 24.015625 -11.640625 24.015625 -14.171875 L 24.015625 -17.859375 L 23.390625 -17.984375 C 22.835938 -17.546875 22.113281 -17.175781 21.21875 -16.875 C 20.332031 -16.582031 19.054688 -16.296875 17.390625 -16.015625 C 15.410156 -15.679688 13.988281 -15.113281 13.125 -14.3125 C 12.257812 -13.507812 11.828125 -12.375 11.828125 -10.90625 C 11.828125 -9.34375 12.285156 -8.15625 13.203125 -7.34375 C 14.128906 -6.53125 15.414062 -6.125 17.0625 -6.125 Z M 17.0625 -6.125 "/></g></g></g><g fill="#8338ec" fill-opacity="1"><g transform="translate(223.261892, 271.81784)"><g><path d="M 25 0 L 14.140625 0 L 0.6875 -36.34375 L 10.25 -36.34375 L 19.265625 -10.4375 L 20.03125 -10.4375 L 29.09375 -36.34375 L 38.40625 -36.34375 Z M 25 0 "/></g></g></g><g fill="#8338ec" fill-opacity="1"><g transform="translate(262.330127, 271.81784)"><g><path d="M 35.90625 -16.109375 L 12.546875 -16.109375 C 12.816406 -12.941406 13.71875 -10.640625 15.25 -9.203125 C 16.789062 -7.765625 18.890625 -7.046875 21.546875 -7.046875 C 23.628906 -7.046875 25.316406 -7.4375 26.609375 -8.21875 C 27.910156 -9 28.957031 -10.179688 29.75 -11.765625 L 30.4375 -11.765625 L 36.5 -7.875 C 35.3125 -5.320312 33.519531 -3.253906 31.125 -1.671875 C 28.738281 -0.0976562 25.546875 0.6875 21.546875 0.6875 C 17.785156 0.6875 14.535156 -0.0234375 11.796875 -1.453125 C 9.066406 -2.878906 6.960938 -5.003906 5.484375 -7.828125 C 4.003906 -10.648438 3.265625 -14.09375 3.265625 -18.15625 C 3.265625 -22.28125 4.039062 -25.757812 5.59375 -28.59375 C 7.15625 -31.425781 9.265625 -33.539062 11.921875 -34.9375 C 14.578125 -36.332031 17.566406 -37.03125 20.890625 -37.03125 C 26.023438 -37.03125 29.957031 -35.664062 32.6875 -32.9375 C 35.425781 -30.21875 36.796875 -26.222656 36.796875 -20.953125 C 36.796875 -19.046875 36.726562 -17.5625 36.59375 -16.5 Z M 28.0625 -22 C 27.976562 -24.769531 27.335938 -26.785156 26.140625 -28.046875 C 24.941406 -29.316406 23.191406 -29.953125 20.890625 -29.953125 C 16.273438 -29.953125 13.5625 -27.300781 12.75 -22 Z M 28.0625 -22 "/></g></g></g><g fill="#8338ec" fill-opacity="1"><g transform="translate(301.826604, 271.81784)"><g><path d="M 15.09375 0.6875 C 11.8125 0.6875 9.304688 -0.191406 7.578125 -1.953125 C 5.859375 -3.722656 5 -6.410156 5 -10.015625 L 5 -50.9375 L 14.140625 -50.9375 L 14.140625 -10.375 C 14.140625 -8.15625 15.0625 -7.046875 16.90625 -7.046875 C 17.425781 -7.046875 17.984375 -7.132812 18.578125 -7.3125 L 19.046875 -7.1875 L 19.859375 -0.171875 C 19.359375 0.0976562 18.691406 0.304688 17.859375 0.453125 C 17.023438 0.609375 16.101562 0.6875 15.09375 0.6875 Z M 15.09375 0.6875 "/></g></g></g></svg>